<svg xmlns="http://www.w3.org/2000/svg" version="1.1" xmlns:xlink="http://www.w3.org/1999/xlink" xmlns:svgjs="http://svgjs.dev/svgjs" viewBox="0 0 9.650535329074074 6.059703146182067"><g transform="matrix(1,0,0,1,4.825267664537037,5.059392390824716)"><g><path d=" M -1.963628700882425 -3.600130368699269 L -1.873610248562081 -3.538149095383453 L -1.6578363372037481 -2.984185541368275 Q -1.6578363372037481 -2.984185541368275 -1.6504464874392464 -2.965433471603631 Q -1.6430566376747444 -2.9466814018389864 -1.6295044386781015 -2.9236252117297035 Q -1.6159522396814585 -2.900569021620421 -1.5964542046952908 -2.884922084805882 L -1.6027129794211064 -2.8771228708114145 L -1.6949753626036512 -2.901157276347589 L -1.963628700882425 -3.600130368699269 Z M -1.8880440102473814 -2.6701561999496177 L -1.8311097480877714 -2.624467144451164 L -1.9005821475443248 -2.537895869112579 L -1.908381361538792 -2.5441546438383944 Q -1.9077554840662103 -2.5449345652378415 -1.9030614030218487 -2.5507839757336916 Q -1.8983673219774868 -2.556633386229542 -1.8983673219774868 -2.556633386229542 Q -1.8814686302177848 -2.5776912640146032 -1.8811939063844427 -2.60439659170058 Q -1.8809191825511007 -2.6311019193865564 -1.9018133146441758 -2.6529979291617902 L -1.8880440102473814 -2.6701561999496177 Z M -1.8480266590626453 -2.6944587019639683 Q -1.8472467376631987 -2.6938328244913867 -1.8464668162637519 -2.693206947018805 Q -1.8456868948643053 -2.6925810695462236 -1.8441270520654118 -2.6913293146010604 Q -1.8316483096742644 -2.6813152750397555 -1.8139217798470457 -2.6818350252535414 Q -1.7961952500198273 -2.682354775467328 -1.7861812104585222 -2.694833517858475 L -1.7761671708972173 -2.7073122602496222 L -1.769147878302197 -2.7016793629963884 L -1.8079522816022537 -2.6533242362306924 L -1.8524078013707161 -2.688999252167841 L -1.8480266590626453 -2.6944587019639683 Z M -2.349795101465248 -3.118918865240648 L -2.3441622042120143 -3.1259381578356686 L -2.2442643527269883 -3.0906476595581474 L -1.8073264041296722 -2.654104157630139 L -1.8505119497378 -2.6002895810683158 L -2.349795101465248 -3.118918865240648 Z M -2.3441622042120143 -3.1259381578356686 L -1.7206824791749595 -3.0448762526784448 L -1.6027129794211064 -2.8771228708114145 L -2.175593646830264 -2.9573272404482243 L -2.3441622042120143 -3.1259381578356686 Z M -1.9579958036291907 -3.6071496612942893 L -1.3416735645289903 -3.2343656788184925 L -1.442439837614622 -3.108798333507572 L -1.832497554989187 -3.3577059009227543 L -1.963628700882425 -3.600130368699269 L -1.9579958036291907 -3.6071496612942893 Z M -1.4180100283386288 -3.255877170934098 L -1.404866601414416 -3.272255520322479 Q -1.3783395720681069 -3.2573788031422657 -1.3523274420530234 -3.263430174233051 Q -1.3263153120379398 -3.269481545323836 -1.3100424977508194 -3.2897595017094505 Q -1.3100424977508194 -3.2897595017094505 -1.3050354779701667 -3.2959988729050242 Q -1.3000284581895143 -3.302238244100598 -1.3000284581895143 -3.302238244100598 L -1.2922292441950471 -3.2959794693747826 L -1.361075766179019 -3.210188115435644 L -1.4180100283386288 -3.255877170934098 Z M -1.4906506222185738 -3.1397938210480403 L -1.486269479910503 -3.1452532708441674 L -1.4418139601420403 -3.1095782549070186 L -1.4799924859695155 -3.062003049540769 L -1.4870117785645358 -3.0676359467940033 L -1.4776236164758125 -3.0793347677857037 Q -1.466983699441926 -3.0925934315762977 -1.4706279861360594 -3.109621912850063 Q -1.474272272830193 -3.1266503941238275 -1.4867510152213401 -3.136664433685133 Q -1.4883108580202338 -3.137916188630296 -1.4890907794196804 -3.138542066102877 Q -1.489870700819127 -3.139167943575459 -1.4906506222185738 -3.1397938210480403 Z M -1.2863315423634742 -4.08533597919337 L -0.6665825007227711 -3.6036897133660197 L -0.8252037628905566 -3.520742168566317 L -1.2509517705528164 -3.8860415443823957 L -1.2863315423634742 -4.08533597919337 Z M -1.177038301473341 -3.4123657068218995 Q -1.1748596377937222 -3.3909355079294228 -1.1639413588102876 -3.3808463462179676 Q -1.1530230798268533 -3.370757184506512 -1.1389137964077962 -3.3696717714972277 Q -1.1248045129887392 -3.368586358487943 -1.1141706853573794 -3.3741470877482582 L -1.1061953146338595 -3.3783176346934947 L -1.1015613735835967 -3.3694561116673616 L -1.2911979663428486 -3.270289773191739 L -1.2958319073931113 -3.279151296217872 Q -1.2958319073931113 -3.279151296217872 -1.2918442220313513 -3.2812365696904906 Q -1.2878565366695913 -3.2833218431631086 -1.2878565366695913 -3.2833218431631086 Q -1.2674750337094849 -3.293979907578713 -1.2524835168183392 -3.31818227153975 Q -1.2374919999271936 -3.3423846355007867 -1.2390689626562739 -3.37992811947006 L -1.177038301473341 -3.4123657068218995 Z M -1.2863315423634742 -4.08533597919337 L -1.2262528523398155 -3.9790789746946493 L -1.1702991308972883 -3.336896616593205 L -1.234988248988061 -3.3030688469262866 L -1.2770237481566054 -3.9423731694595006 Q -1.277145655878923 -3.9490802655902595 -1.2781455163422566 -3.9671772343710763 Q -1.27914537680559 -3.985274203151893 -1.2813443584389286 -4.007822251399496 Q -1.2835433400722671 -4.0303702996471 -1.286376459001986 -4.050894028283243 Q -1.2892095779317052 -4.071417756919387 -1.2943069130869942 -4.081165432248134 L -1.2863315423634742 -4.08533597919337 Z M -0.9699295919664115 -3.7068669503615053 L -0.9504670395553081 -3.669648553651746 L -1.210995816523626 -3.5334106867740216 L -1.2304583689347295 -3.570629083483781 L -0.9699295919664115 -3.7068669503615053 Z M -0.8801772800978767 -3.5676027320057004 L -0.7251006271405446 -3.6486967003852984 Q -0.6942806384252247 -3.626445221881892 -0.666293768639624 -3.624717472014629 Q -0.6383068988540231 -3.6229897221473664 -0.6179253958939167 -3.633647786562971 Q -0.6179253958939167 -3.633647786562971 -0.6143807866834634 -3.635501362983076 Q -0.6108361774730101 -3.637354939403181 -0.6108361774730101 -3.637354939403181 L -0.6062022364227474 -3.6284934163770477 L -0.8879986686537851 -3.481134090978693 L -0.8926326097040478 -3.4899956140048265 L -0.8846572389805278 -3.494166160950063 Q -0.8669341929282613 -3.5034340430505884 -0.861287911121995 -3.525006467619102 Q -0.8556416293157285 -3.546578892187616 -0.8801772800978767 -3.5676027320057004 Z M -0.44593785958951476 -4.347858297743589 L -0.31797262377029173 -4.364164689794888 Q -0.2733335880194 -4.369852966091852 -0.2294144480136669 -4.365368644386531 Q -0.18549530800793373 -4.36088432268121 -0.14948309075930943 -4.343295399779626 Q -0.11347087351068519 -4.32570647687804 -0.08908068102827282 -4.292523371075978 Q -0.06469048854586035 -4.259340265273916 -0.05799096312943541 -4.206765400945088 Q -0.05268190525226857 -4.165102300910922 -0.06479567545930365 -4.121723082714058 Q -0.07690944566633862 -4.078343864517194 -0.1088916931390419 -4.0445298755984815 Q -0.1408739406117453 -4.01071588667977 -0.19665828238994626 -3.997558865270163 Q -0.16365090667887555 -3.991684076025584 -0.13407691487621537 -3.9692423958555034 Q -0.10450292307355524 -3.9468007156854226 -0.08435272770719437 -3.923158177185983 Q -0.08310793685508722 -3.9213006261814316 -0.07066966360762506 -3.9067562334948507 Q -0.058231390360162893 -3.8922118408082698 -0.03988517820199644 -3.8708596395295363 Q -0.0215389660438301 -3.8495074382508028 -0.0016415829573344087 -3.827848856895847 Q 0.018255800129161392 -3.8061902755408914 0.03441881065933572 -3.7901043471995903 Q 0.059655305026839356 -3.7661018608275714 0.07959662063608297 -3.7520095249043637 Q 0.0995379362453267 -3.7379171889811555 0.12032555373966158 -3.7330054724879913 Q 0.14111317123399647 -3.728093755994827 0.16703102025222205 -3.7303883370608313 L 0.1682950816515475 -3.720468551338411 L 0.07108118157182763 -3.7080807496250214 Q 0.01751433867075758 -3.701254818068664 -0.02739677990721756 -3.705612733634052 Q -0.07230789848519281 -3.7099706491994406 -0.10887930808990431 -3.72799235831718 Q -0.14545071769461598 -3.746014067434919 -0.17518002145803618 -3.7815410782540453 Q -0.18463272371516304 -3.7924335720014892 -0.1963950337402145 -3.809584317258608 Q -0.20815734376526596 -3.8267350625157266 -0.2207316584262698 -3.846302551133484 Q -0.23330597308727363 -3.865870039751241 -0.24519468925225762 -3.8840127635806017 Q -0.2570834054172416 -3.902155487409962 -0.2660497536618566 -3.917142301586307 Q -0.27501610190647163 -3.9321291157626517 -0.2791296928825906 -3.940677704493033 Q -0.2960704107995786 -3.970777738985655 -0.315452534052735 -3.9844372886927077 Q -0.33483465730589135 -3.998096838399761 -0.35505344717052983 -3.998544651317836 L -0.3563175085698553 -4.0084644370402565 Q -0.3533415728531291 -4.008843655460054 -0.3444137657029508 -4.009981310719447 Q -0.3354859585527724 -4.01111896597884 -0.32556617283035205 -4.012383027378165 Q -0.298782751379817 -4.0157959931563445 -0.274877765326903 -4.029931114019287 Q -0.25097277927398903 -4.044066234882229 -0.23429336132746187 -4.071393821986931 Q -0.2176139433809347 -4.098721409091633 -0.21523998496003044 -4.1433797153897425 Q -0.21439368307493922 -4.152560334819786 -0.2144225888957667 -4.164653686896589 Q -0.2144514947165942 -4.176747038973392 -0.2173395653878244 -4.191500311417091 Q -0.22941674317969374 -4.2625435501987194 -0.2663866417514213 -4.291603429751055 Q -0.30335654032314885 -4.320663309303388 -0.3520898965029413 -4.315461387018936 Q -0.3661040026542624 -4.314683679632122 -0.38240844602628976 -4.312101989037114 Q -0.39871288939831717 -4.309520298442106 -0.4121046001235847 -4.307813815553017 Q -0.4254963108488522 -4.306107332663927 -0.4304562037100624 -4.305475301964265 Q -0.4305826098499949 -4.3064672805365065 -0.43438982074989174 -4.316567040195217 Q -0.43819703164978857 -4.3266667998539265 -0.44206744561965167 -4.3372625487987575 Q -0.44593785958951476 -4.347858297743589 -0.44593785958951476 -4.347858297743589 Z M -0.43304213815036824 -4.349501577562712 L -0.3445578401975866 -3.6551165769932847 L -0.49335462603389246 -3.636155656003403 L -0.581838923986674 -4.33054065657283 L -0.43304213815036824 -4.349501577562712 Z M -0.4996063385322421 -3.7089493101968696 L -0.49037869031716635 -3.6365348744232007 L -0.5697369760965294 -3.626422383228597 L -0.5710010374958548 -3.6363421689510176 Q -0.5700090589236129 -3.6364685750909502 -0.5645531767762817 -3.637163808860579 Q -0.5590972946289504 -3.637859042630208 -0.5581053160567084 -3.6379854487701406 Q -0.5323138731784154 -3.6412720084083867 -0.5163007831806897 -3.6619621255836163 Q -0.5002876931829641 -3.6826522427588464 -0.5025822742489683 -3.708570091777072 L -0.4996063385322421 -3.7089493101968696 Z M -0.5696353400548722 -4.258505439218959 L -0.5726112757715983 -4.258126220799161 Q -0.5768898139820865 -4.283791257537522 -0.5975799311573163 -4.299804347535248 Q -0.6182700483325461 -4.315817437532973 -0.6440614912108391 -4.312530877894727 Q -0.6450534697830812 -4.312404471754794 -0.6505093519304124 -4.311709237985165 Q -0.6559652340777435 -4.3110140042155365 -0.6569572126499856 -4.310887598075604 L -0.6582212740493111 -4.320807383798025 L -0.578862988269948 -4.330919874992627 L -0.5696353400548722 -4.258505439218959 Z M -0.35676142412938855 -3.727151794347156 L -0.35378548841266244 -3.7275310127669536 Q -0.35049892877441624 -3.7017395698886606 -0.3293128223130654 -3.6857896829609014 Q -0.3081267158517146 -3.669839796033142 -0.2823352729734216 -3.6731263556713882 Q -0.2803513158289375 -3.673379167951253 -0.27539142296772734 -3.674011198650916 Q -0.2704315301065171 -3.6746432293505786 -0.2704315301065171 -3.6746432293505786 L -0.26916746870719166 -3.664723443628158 L -0.3475337759143127 -3.6547373585734872 L -0.35676142412938855 -3.727151794347156 Z M 0.8866992082762113 -3.825219255462529 L 0.8539281213901786 -3.6561303561689678 Q 0.8236498297963519 -3.6255325611804525 0.7805039746029467 -3.6053475375334587 Q 0.7373581194095415 -3.5851625138864645 0.6795192453319336 -3.5804812057963447 Q 0.6216803712543257 -3.575799897706225 0.548896743503142 -3.593898061463278 Q 0.43074335121131035 -3.624308189544766 0.35244426033395676 -3.6886024534240573 Q 0.27414516945660317 -3.7528967173033485 0.24516876781343114 -3.8435684777793293 Q 0.2161923661702591 -3.9342402382553097 0.2439428839310736 -4.045841800807125 Q 0.27096947514160596 -4.154532018248893 0.3381881165550436 -4.221799426750572 Q 0.4054067579684812 -4.28906683525225 0.5048203732290633 -4.30968680374934 Q 0.6042339884896453 -4.33030677224643 0.7274809314816499 -4.2996605482844865 Q 0.8051168010829126 -4.280355840276964 0.8628793309774103 -4.249505554375739 Q 0.920641860871908 -4.2186552684745156 0.9558505888604081 -4.1861999842602025 L 0.9165276722343587 -4.019770695287315 L 0.9077936369042168 -4.021942474938162 Q 0.9054811070731006 -4.124532202522263 0.8565393826311343 -4.180496098103671 Q 0.8075976581891682 -4.236459993685078 0.7280208918478739 -4.25624731939279 Q 0.650385022246611 -4.2755520274003125 0.5856584200020438 -4.251459145425057 Q 0.5209318177574767 -4.2273662634498015 0.4737149899303105 -4.165945003531596 Q 0.4264981621031444 -4.104523743613391 0.40260858594383453 -4.008449354981828 Q 0.37871900978452466 -3.9123749663502654 0.38997299949321945 -3.8353840726313546 Q 0.4012269892019143 -3.7583931789124443 0.444464071364013 -3.7064239117816875 Q 0.48770115352611165 -3.654454644650931 0.5590317152070916 -3.6346568930039407 Q 0.633756239698307 -3.6160761115466995 0.6912227245614946 -3.6275479517421103 Q 0.7486892094246822 -3.6390197919375207 0.7942246947556493 -3.68746325977038 Q 0.8397601800866166 -3.7359067276032394 0.878935621316085 -3.8271497262632814 L 0.8866992082762113 -3.825219255462529 Z M 1.5166191440745065 -3.9310528559059703 L 1.253998228324294 -3.5780227515090224 Q 1.2116207623736917 -3.521056530117697 1.1994387619971398 -3.465308446143217 Q 1.187256761620588 -3.4095603621687367 1.205446361393909 -3.361131151354535 Q 1.22363596116723 -3.3127019405403333 1.271776429948632 -3.2768899974834858 Q 1.3207192398763907 -3.2404811887090244 1.372240362406038 -3.2351827046536488 Q 1.4237614849356852 -3.229884220598273 1.4722640926113377 -3.2548741595470125 Q 1.5207667002869905 -3.279864098495752 1.5607567033671366 -3.3336209553016505 L 1.8311368734463327 -3.6970814946012354 L 1.888905435984015 -3.654107162933019 L 1.6221064602105035 -3.295460670511574 Q 1.5731634713661458 -3.2296686965103247 1.5096707587599925 -3.20212009498661 Q 1.4461780461538392 -3.1745714934628952 1.3750289063913732 -3.186993244992413 Q 1.3038797666289073 -3.199414996521931 1.2308667223104477 -3.253729776824816 Q 1.1458185607966374 -3.316997542891913 1.1066457929350575 -3.386644827534336 Q 1.0674730250734772 -3.45629211217676 1.0737010834294978 -3.5258170090778984 Q 1.0799291417855184 -3.5953419059790375 1.1288721306298761 -3.661133879980287 L 1.3962679721210018 -4.020582713548088 L 1.5166191440745065 -3.9310528559059703 Z M 1.398674995560072 -4.018792116395246 L 1.3628630525032248 -3.9706516476138436 L 1.3604560290641545 -3.972442244766686 Q 1.3735870748516652 -3.990093749986533 1.369506907129734 -4.010577944658547 Q 1.3654267394078028 -4.031062139330559 1.3477752341879556 -4.044193185118069 Q 1.3477752341879556 -4.044193185118069 1.341356505017102 -4.048968110858983 Q 1.3349377758462484 -4.053743036599895 1.3349377758462484 -4.053743036599895 L 1.3409064330223894 -4.061766448063462 L 1.398674995560072 -4.018792116395246 Z M 1.571980683173119 -3.889869121390596 L 1.5660120259969776 -3.881845709927029 Q 1.5660120259969776 -3.881845709927029 1.5595932968261241 -3.886620635667942 Q 1.5531745676552706 -3.8913955614088547 1.5531745676552706 -3.8913955614088547 Q 1.535523062435423 -3.9045266071963654 1.5147306546202965 -3.9025452497703905 Q 1.49393824680517 -3.9005638923444157 1.4808072010176594 -3.882912387124568 L 1.479202518724946 -3.8841061185597963 L 1.515014461781793 -3.9322465873411985 L 1.571980683173119 -3.889869121390596 Z M 1.8335438968854028 -3.695290897448393 L 1.7977319538285554 -3.6471504286669907 L 1.7953249303894854 -3.648941025819833 Q 1.808455976176996 -3.6665925310396807 1.804375808455065 -3.687076725711693 Q 1.8002956407331339 -3.707560920383706 1.7826441355132865 -3.720691966171217 Q 1.7826441355132865 -3.720691966171217 1.7762254063424328 -3.7254668919121294 Q 1.7698066771715792 -3.7302418176530425 1.7698066771715792 -3.7302418176530425 L 1.7757753343477205 -3.7382652291166094 L 1.8335438968854028 -3.695290897448393 Z M 1.9442669750826271 -3.6129234284176444 L 1.938298317906486 -3.6049000169540775 Q 1.938298317906486 -3.6049000169540775 1.9318795887356326 -3.6096749426949906 Q 1.9254608595647789 -3.614449868435903 1.9254608595647789 -3.614449868435903 Q 1.9078093543449315 -3.627580914223414 1.8870169465298048 -3.625599556797439 Q 1.8662245387146785 -3.6236181993714642 1.8530934929271679 -3.6059666941516166 L 1.8514888106344545 -3.607160425586845 L 1.8873007536913016 -3.655300894368247 L 1.9442669750826271 -3.6129234284176444 Z M 2.2960256784862105 -3.16918185555901 Q 2.3070642010704914 -3.1525039954098086 2.3216782358673855 -3.1268002994313084 Q 2.33629227066428 -3.1010966034528087 2.3507593182084126 -3.0728972322655674 Q 2.365226365752545 -3.044697861078326 2.375278004262965 -3.0231696339507654 Q 2.385329642773385 -3.0016414068232047 2.3869614059064714 -2.991928665239208 L 2.2677627363487938 -2.9274253538848316 L 2.2622434750566534 -2.9357642839594322 Q 2.3056059114445766 -2.9644644426785627 2.310624385204828 -3.013954996536018 Q 2.315642858965079 -3.063445550393473 2.2803195866953794 -3.1168147028709177 Q 2.2483078712009643 -3.1651804973036013 2.2053654894049837 -3.17932976745044 Q 2.162423107609003 -3.1934790375972786 2.127963535052172 -3.1730697784436366 Q 2.102394818699156 -3.1573458875746754 2.095087695119316 -3.128525652582765 Q 2.0877805715394757 -3.0997054175908545 2.0890463144033697 -3.0633681379045252 L 2.091061472158206 -2.83565573345711 Q 2.094768855908091 -2.782946575754382 2.0727156136312983 -2.74016919265208 Q 2.0506623713545062 -2.6973918095497784 2.0023085845491 -2.6689856253361715 Q 1.9178274391719436 -2.6190663297104946 1.8337454412203862 -2.647358866190533 Q 1.749663443268829 -2.6756514026705718 1.6834323077631426 -2.7757185635657793 Q 1.6591475580777242 -2.8124098558940225 1.6424968212712914 -2.8511558616727206 Q 1.6258460844648586 -2.8899018674514183 1.6194420039307198 -2.9240374464345305 Q 1.613037923396581 -2.958173025417642 1.618395294083255 -2.9845035890144502 Q 1.6323255312136642 -3.00331710791684 1.6587281405741403 -3.0195929249150155 Q 1.6851307499346162 -3.035868741913191 1.7165066982716577 -3.0464422874846306 Q 1.7478826466086994 -3.0570158330560697 1.7725694394451434 -3.0577656726725837 L 1.77753677460807 -3.050260635605443 Q 1.7328005267107505 -3.025447975045367 1.7089445187935537 -2.982676595756704 Q 1.6850885108763571 -2.9399052164680413 1.687833025806937 -2.88955675434857 Q 1.6905775407375165 -2.839208292229099 1.7245270014978198 -2.789726637910709 Q 1.7617880190334074 -2.735241625547559 1.8087588824275653 -2.7231590764784532 Q 1.8557297458217235 -2.7110765274093476 1.8940888241648866 -2.736465129353194 Q 1.9199395073961485 -2.75357483935883 1.9305761991921901 -2.782800013227192 Q 1.9412128909882318 -2.812025187095555 1.937211532732823 -2.8597429943808006 L 1.937356048985731 -3.0696977016751426 Q 1.9331207543611881 -3.1304518149469476 1.959067498610674 -3.1764057751990493 Q 1.9850142428601596 -3.2223597354511515 2.0341899150457476 -3.2477123145131643 Q 2.079760055950527 -3.2730769012024545 2.127048909104765 -3.273196765112448 Q 2.174337762259003 -3.2733166290224416 2.2177960473023637 -3.247516872025718 Q 2.261254332345725 -3.2217171150289943 2.2960256784862105 -3.16918185555901 Z M 2.397520048125206 -2.9977178857823166 L 2.378904442710117 -2.9877952230837415 L 2.3137771594628584 -3.0861945979640293 L 2.3312889126195198 -3.097785046677524 L 2.397520048125206 -2.9977178857823166 Z" fill="#173054" fill-rule="nonzero"></path></g><g><path d=" M -3.8364569091796867 0.2135 L -3.8424569091796865 0.292 Q -3.855456909179687 0.3135 -3.8752069091796866 0.33025 Q -3.8949569091796867 0.347 -3.9217069091796866 0.35675 Q -3.948456909179687 0.3665 -3.982956909179687 0.3665 Q -4.034956909179686 0.366 -4.075456909179687 0.34349999999999997 Q -4.115956909179687 0.321 -4.138706909179687 0.28025 Q -4.1614569091796865 0.2395 -4.1614569091796865 0.18399999999999997 Q -4.1614569091796865 0.12949999999999998 -4.1389569091796865 0.08875 Q -4.1164569091796865 0.04799999999999999 -4.0757069091796865 0.025249999999999995 Q -4.034956909179686 0.0025000000000000022 -3.9799569091796867 0.0025000000000000022 Q -3.9429569091796868 0.0025000000000000022 -3.913206909179687 0.012249999999999983 Q -3.883456909179687 0.021999999999999964 -3.8614569091796866 0.03649999999999998 L -3.851456909179687 0.10699999999999998 L -3.8559569091796866 0.10699999999999998 Q -3.8669569091796867 0.063 -3.900956909179687 0.04024999999999995 Q -3.9349569091796868 0.01749999999999996 -3.9799569091796867 0.01749999999999996 Q -4.023956909179686 0.01749999999999996 -4.056206909179687 0.038250000000000006 Q -4.088456909179687 0.059 -4.1062069091796864 0.09625 Q -4.123956909179687 0.13349999999999998 -4.123956909179687 0.1835 Q -4.123956909179687 0.23349999999999999 -4.1062069091796864 0.271 Q -4.088456909179687 0.3085 -4.056706909179686 0.3295 Q -4.024956909179687 0.3505 -3.982956909179687 0.3515 Q -3.947456909179687 0.3515 -3.917206909179687 0.33825 Q -3.8869569091796867 0.32499999999999996 -3.8664569091796865 0.29474999999999996 Q -3.845956909179687 0.26449999999999996 -3.8404569091796867 0.2135 L -3.8364569091796867 0.2135 Z M -3.5919825439453117 0.0025000000000000022 Q -3.538482543945312 0.0025000000000000022 -3.497982543945312 0.025249999999999995 Q -3.4574825439453116 0.04799999999999999 -3.434732543945312 0.08899999999999997 Q -3.411982543945312 0.12999999999999998 -3.411982543945312 0.18449999999999997 Q -3.411982543945312 0.239 -3.434732543945312 0.27999999999999997 Q -3.4574825439453116 0.321 -3.497982543945312 0.34375 Q -3.538482543945312 0.3665 -3.5919825439453117 0.3665 Q -3.6449825439453116 0.3665 -3.685482543945312 0.34375 Q -3.725982543945312 0.321 -3.748732543945312 0.27999999999999997 Q -3.7714825439453117 0.239 -3.7714825439453117 0.18449999999999997 Q -3.7714825439453117 0.12999999999999998 -3.748732543945312 0.08899999999999997 Q -3.725982543945312 0.04799999999999999 -3.685482543945312 0.025249999999999995 Q -3.6449825439453116 0.0025000000000000022 -3.5919825439453117 0.0025000000000000022 Z M -3.5919825439453117 0.3515 Q -3.5494825439453117 0.3515 -3.517732543945312 0.33049999999999996 Q -3.485982543945312 0.3095 -3.468232543945312 0.27199999999999996 Q -3.450482543945312 0.2345 -3.450482543945312 0.18449999999999997 Q -3.450482543945312 0.13449999999999998 -3.468232543945312 0.09699999999999998 Q -3.485982543945312 0.0595 -3.517732543945312 0.03849999999999998 Q -3.5494825439453117 0.01749999999999996 -3.5919825439453117 0.01749999999999996 Q -3.633982543945312 0.01749999999999996 -3.6657325439453117 0.03849999999999998 Q -3.697482543945312 0.0595 -3.7152325439453118 0.09699999999999998 Q -3.7329825439453117 0.13449999999999998 -3.7329825439453117 0.18449999999999997 Q -3.7329825439453117 0.2345 -3.7152325439453118 0.27199999999999996 Q -3.697482543945312 0.3095 -3.6657325439453117 0.33049999999999996 Q -3.633982543945312 0.3515 -3.5919825439453117 0.3515 Z M -3.019514038085937 0.0025000000000000022 L -3.015514038085937 0.035999999999999976 L -3.141014038085937 0.3155 Q -3.141014038085937 0.3155 -3.144764038085937 0.32399999999999995 Q -3.148514038085937 0.33249999999999996 -3.152514038085937 0.34425 Q -3.156514038085937 0.356 -3.1580140380859367 0.3665 L -3.163014038085937 0.3665 L -3.1700140380859367 0.33499999999999996 L -3.019514038085937 0.0025000000000000022 Z M -3.3270140380859368 0.323 L -3.3270140380859368 0.3595 L -3.382514038085937 0.3595 L -3.382514038085937 0.3545 Q -3.382014038085937 0.3545 -3.378264038085937 0.3545 Q -3.374514038085937 0.3545 -3.374514038085937 0.3545 Q -3.361014038085937 0.3545 -3.350514038085937 0.34625 Q -3.340014038085937 0.33799999999999997 -3.338014038085937 0.323 L -3.3270140380859368 0.323 Z M -3.312514038085937 0.33099999999999996 Q -3.312514038085937 0.33149999999999996 -3.312514038085937 0.33199999999999996 Q -3.312514038085937 0.33249999999999996 -3.312514038085937 0.33349999999999996 Q -3.312514038085937 0.34149999999999997 -3.306764038085937 0.34825 Q -3.301014038085937 0.355 -3.293014038085937 0.355 L -3.285514038085937 0.355 L -3.285514038085937 0.3595 L -3.316014038085937 0.3595 L -3.316014038085937 0.33099999999999996 L -3.312514038085937 0.33099999999999996 Z M -3.300514038085937 0.0025000000000000022 L -3.295514038085937 0.0025000000000000022 L -3.285514038085937 0.03199999999999997 L -3.3150140380859368 0.3595 L -3.342014038085937 0.3595 L -3.300514038085937 0.0025000000000000022 Z M -3.295514038085937 0.0025000000000000022 L -3.1515140380859368 0.314 L -3.163014038085937 0.3665 L -3.305014038085937 0.058499999999999996 L -3.295514038085937 0.0025000000000000022 Z M -3.015014038085937 0.0025000000000000022 L -2.972014038085937 0.3595 L -3.011014038085937 0.3595 L -3.038514038085937 0.056499999999999995 L -3.019514038085937 0.0025000000000000022 L -3.015014038085937 0.0025000000000000022 Z M -2.987014038085937 0.323 L -2.976514038085937 0.323 Q -2.974014038085937 0.33799999999999997 -2.963514038085937 0.34625 Q -2.953014038085937 0.3545 -2.9400140380859368 0.3545 Q -2.9400140380859368 0.3545 -2.9360140380859368 0.3545 Q -2.9320140380859367 0.3545 -2.9320140380859367 0.3545 L -2.9320140380859367 0.3595 L -2.987014038085937 0.3595 L -2.987014038085937 0.323 Z M -3.013514038085937 0.33099999999999996 L -3.010014038085937 0.33099999999999996 L -3.010014038085937 0.3595 L -3.040514038085937 0.3595 L -3.040514038085937 0.355 L -3.0330140380859367 0.355 Q -3.024514038085937 0.355 -3.019014038085937 0.34825 Q -3.013514038085937 0.34149999999999997 -3.013514038085937 0.33349999999999996 Q -3.013514038085937 0.33249999999999996 -3.013514038085937 0.33199999999999996 Q -3.013514038085937 0.33149999999999996 -3.013514038085937 0.33099999999999996 Z M -2.825029418945312 0.009499999999999953 L -2.759029418945312 0.009499999999999953 Q -2.727029418945312 0.009499999999999953 -2.704029418945312 0.020999999999999963 Q -2.681029418945312 0.03249999999999997 -2.668529418945312 0.054249999999999965 Q -2.656029418945312 0.07599999999999996 -2.656029418945312 0.10599999999999998 Q -2.656029418945312 0.12899999999999998 -2.665029418945312 0.14725 Q -2.674029418945312 0.16549999999999998 -2.689029418945312 0.178 Q -2.704029418945312 0.19049999999999997 -2.723029418945312 0.19674999999999998 Q -2.742029418945312 0.20299999999999999 -2.762279418945312 0.20149999999999998 Q -2.782529418945312 0.19999999999999998 -2.801529418945312 0.18999999999999997 L -2.801529418945312 0.18499999999999997 Q -2.801529418945312 0.18499999999999997 -2.793029418945312 0.18624999999999997 Q -2.7845294189453123 0.18749999999999997 -2.771279418945312 0.18674999999999997 Q -2.758029418945312 0.18599999999999997 -2.743279418945312 0.18125 Q -2.728529418945312 0.1765 -2.715779418945312 0.16449999999999998 Q -2.703029418945312 0.15249999999999997 -2.696529418945312 0.13099999999999998 Q -2.695029418945312 0.12549999999999997 -2.6940294189453122 0.11725 Q -2.693029418945312 0.10899999999999999 -2.693529418945312 0.10099999999999998 Q -2.6940294189453122 0.0665 -2.711529418945312 0.045499999999999985 Q -2.729029418945312 0.024499999999999966 -2.761029418945312 0.024499999999999966 L -2.820029418945312 0.024499999999999966 Q -2.820029418945312 0.024499999999999966 -2.821279418945312 0.02074999999999999 Q -2.822529418945312 0.01699999999999996 -2.8237794189453123 0.013249999999999984 Q -2.825029418945312 0.009499999999999953 -2.825029418945312 0.009499999999999953 Z M -2.818529418945312 0.009499999999999953 L -2.818529418945312 0.3595 L -2.851029418945312 0.3595 L -2.851029418945312 0.009499999999999953 L -2.818529418945312 0.009499999999999953 Z M -2.849529418945312 0.323 L -2.849529418945312 0.3595 L -2.8895294189453122 0.3595 L -2.8895294189453122 0.3545 Q -2.8895294189453122 0.3545 -2.8862794189453123 0.3545 Q -2.883029418945312 0.3545 -2.883029418945312 0.3545 Q -2.870029418945312 0.3545 -2.860779418945312 0.34525 Q -2.851529418945312 0.33599999999999997 -2.851029418945312 0.323 L -2.849529418945312 0.323 Z M -2.849529418945312 0.045999999999999985 L -2.851029418945312 0.045999999999999985 Q -2.851029418945312 0.032999999999999974 -2.860529418945312 0.023749999999999993 Q -2.870029418945312 0.014499999999999957 -2.883029418945312 0.014499999999999957 Q -2.883029418945312 0.014499999999999957 -2.886029418945312 0.014499999999999957 Q -2.889029418945312 0.014499999999999957 -2.889029418945312 0.014499999999999957 L -2.8895294189453122 0.009499999999999953 L -2.849529418945312 0.009499999999999953 L -2.849529418945312 0.045999999999999985 Z M -2.820029418945312 0.323 L -2.818529418945312 0.323 Q -2.818029418945312 0.33599999999999997 -2.808779418945312 0.34525 Q -2.799529418945312 0.3545 -2.786529418945312 0.3545 Q -2.786529418945312 0.3545 -2.783279418945312 0.3545 Q -2.780029418945312 0.3545 -2.780029418945312 0.3545 L -2.780029418945312 0.3595 L -2.820029418945312 0.3595 L -2.820029418945312 0.323 Z M -2.534046752929687 0.009499999999999953 L -2.534046752929687 0.22949999999999998 Q -2.534046752929687 0.26549999999999996 -2.5207967529296873 0.293 Q -2.507546752929687 0.3205 -2.483546752929687 0.33575 Q -2.459546752929687 0.351 -2.428046752929687 0.351 Q -2.394546752929687 0.351 -2.369546752929687 0.33649999999999997 Q -2.3445467529296873 0.322 -2.330546752929687 0.29625 Q -2.3165467529296873 0.27049999999999996 -2.3165467529296873 0.236 L -2.3165467529296873 0.009499999999999953 L -2.293046752929687 0.009499999999999953 L -2.293046752929687 0.236 Q -2.293046752929687 0.27499999999999997 -2.309796752929687 0.30424999999999996 Q -2.326546752929687 0.33349999999999996 -2.357046752929687 0.35 Q -2.387546752929687 0.3665 -2.428046752929687 0.3665 Q -2.4695467529296873 0.3665 -2.5007967529296873 0.35025 Q -2.5320467529296873 0.33399999999999996 -2.549296752929687 0.30474999999999997 Q -2.5665467529296873 0.27549999999999997 -2.5665467529296873 0.2365 L -2.5665467529296873 0.009499999999999953 L -2.534046752929687 0.009499999999999953 Z M -2.565046752929687 0.009499999999999953 L -2.565046752929687 0.03949999999999998 L -2.5665467529296873 0.03949999999999998 Q -2.5665467529296873 0.02849999999999997 -2.574296752929687 0.021499999999999964 Q -2.582046752929687 0.014499999999999957 -2.5930467529296872 0.014499999999999957 Q -2.5930467529296872 0.014499999999999957 -2.5970467529296872 0.014499999999999957 Q -2.6010467529296872 0.014499999999999957 -2.6010467529296872 0.014499999999999957 L -2.6010467529296872 0.009499999999999953 L -2.565046752929687 0.009499999999999953 Z M -2.499546752929687 0.009499999999999953 L -2.499546752929687 0.014499999999999957 Q -2.499546752929687 0.014499999999999957 -2.503546752929687 0.014499999999999957 Q -2.507546752929687 0.014499999999999957 -2.507546752929687 0.014499999999999957 Q -2.518546752929687 0.014499999999999957 -2.526296752929687 0.021499999999999964 Q -2.534046752929687 0.02849999999999997 -2.534046752929687 0.03949999999999998 L -2.535046752929687 0.03949999999999998 L -2.535046752929687 0.009499999999999953 L -2.499546752929687 0.009499999999999953 Z M -2.315046752929687 0.009499999999999953 L -2.315046752929687 0.03949999999999998 L -2.3165467529296873 0.03949999999999998 Q -2.3165467529296873 0.02849999999999997 -2.324296752929687 0.021499999999999964 Q -2.332046752929687 0.014499999999999957 -2.3430467529296872 0.014499999999999957 Q -2.3430467529296872 0.014499999999999957 -2.3470467529296872 0.014499999999999957 Q -2.3510467529296872 0.014499999999999957 -2.3510467529296872 0.014499999999999957 L -2.3510467529296872 0.009499999999999953 L -2.315046752929687 0.009499999999999953 Z M -2.258546752929687 0.009499999999999953 L -2.258546752929687 0.014499999999999957 Q -2.258546752929687 0.014499999999999957 -2.262546752929687 0.014499999999999957 Q -2.266546752929687 0.014499999999999957 -2.266546752929687 0.014499999999999957 Q -2.277546752929687 0.014499999999999957 -2.2852967529296873 0.021499999999999964 Q -2.293046752929687 0.02849999999999997 -2.293046752929687 0.03949999999999998 L -2.2940467529296873 0.03949999999999998 L -2.2940467529296873 0.009499999999999953 L -2.258546752929687 0.009499999999999953 Z M -2.0575601806640624 0.010999999999999954 L -2.0575601806640624 0.3595 L -2.090060180664062 0.3595 L -2.090060180664062 0.010999999999999954 L -2.0575601806640624 0.010999999999999954 Z M -1.9290601806640622 0.008999999999999952 L -1.9290601806640622 0.023999999999999966 L -2.2185601806640625 0.023999999999999966 L -2.2185601806640625 0.008999999999999952 L -1.9290601806640622 0.008999999999999952 Z M -1.9290601806640622 0.022499999999999964 L -1.9290601806640622 0.063 L -1.9340601806640623 0.0625 L -1.9340601806640623 0.05399999999999999 Q -1.9340601806640623 0.04149999999999998 -1.9428101806640623 0.032999999999999974 Q -1.9515601806640621 0.024499999999999966 -1.9635601806640621 0.023999999999999966 L -1.9635601806640621 0.022499999999999964 L -1.9290601806640622 0.022499999999999964 Z M -1.9290601806640622 0 L -1.9290601806640622 0.014499999999999957 L -1.9900601806640623 0.008999999999999952 Q -1.9790601806640622 0.008999999999999952 -1.9668101806640623 0.007500000000000007 Q -1.9545601806640622 0.006000000000000005 -1.9440601806640623 0.0040000000000000036 Q -1.9335601806640623 0.0020000000000000018 -1.9290601806640622 0 Z M -2.088560180664062 0.323 L -2.088560180664062 0.3595 L -2.128560180664062 0.3595 L -2.128560180664062 0.3545 Q -2.128560180664062 0.3545 -2.125310180664062 0.3545 Q -2.122060180664062 0.3545 -2.122060180664062 0.3545 Q -2.1090601806640623 0.3545 -2.099810180664062 0.34525 Q -2.0905601806640624 0.33599999999999997 -2.090060180664062 0.323 L -2.088560180664062 0.323 Z M -2.059060180664062 0.323 L -2.0575601806640624 0.323 Q -2.0570601806640623 0.33599999999999997 -2.047810180664062 0.34525 Q -2.0385601806640623 0.3545 -2.0255601806640624 0.3545 Q -2.0255601806640624 0.3545 -2.0223101806640624 0.3545 Q -2.0190601806640625 0.3545 -2.0190601806640625 0.3545 L -2.0190601806640625 0.3595 L -2.059060180664062 0.3595 L -2.059060180664062 0.323 Z M -2.184060180664062 0.022499999999999964 L -2.184060180664062 0.023999999999999966 Q -2.1965601806640622 0.024499999999999966 -2.2050601806640624 0.032999999999999974 Q -2.213560180664062 0.04149999999999998 -2.213560180664062 0.05399999999999999 L -2.213560180664062 0.0625 L -2.2185601806640625 0.063 L -2.2185601806640625 0.022499999999999964 L -2.184060180664062 0.022499999999999964 Z M -2.2185601806640625 0 Q -2.213560180664062 0.0020000000000000018 -2.203310180664062 0.0040000000000000036 Q -2.1930601806640624 0.006000000000000005 -2.180560180664062 0.007500000000000007 Q -2.168060180664062 0.008999999999999952 -2.157560180664062 0.008999999999999952 L -2.2185601806640625 0.014499999999999957 L -2.2185601806640625 0 Z M -1.8135697021484374 0.009499999999999953 L -1.8135697021484374 0.3595 L -1.8460697021484374 0.3595 L -1.8460697021484374 0.009499999999999953 L -1.8135697021484374 0.009499999999999953 Z M -1.8445697021484373 0.323 L -1.8445697021484373 0.3595 L -1.8845697021484373 0.3595 L -1.8845697021484373 0.3545 Q -1.8845697021484373 0.3545 -1.8813197021484374 0.3545 Q -1.8780697021484374 0.3545 -1.8780697021484374 0.3545 Q -1.8650697021484373 0.3545 -1.8558197021484373 0.34525 Q -1.8465697021484373 0.33599999999999997 -1.8460697021484374 0.323 L -1.8445697021484373 0.323 Z M -1.8445697021484373 0.045999999999999985 L -1.8460697021484374 0.045999999999999985 Q -1.8465697021484373 0.032999999999999974 -1.8558197021484373 0.023749999999999993 Q -1.8650697021484373 0.014499999999999957 -1.8780697021484374 0.014499999999999957 Q -1.8780697021484374 0.014499999999999957 -1.8813197021484374 0.014499999999999957 Q -1.8845697021484373 0.014499999999999957 -1.8845697021484373 0.014499999999999957 L -1.8845697021484373 0.009499999999999953 L -1.8445697021484373 0.009499999999999953 L -1.8445697021484373 0.045999999999999985 Z M -1.8150697021484374 0.323 L -1.8135697021484374 0.323 Q -1.8130697021484374 0.33599999999999997 -1.8038197021484375 0.34525 Q -1.7945697021484373 0.3545 -1.7815697021484374 0.3545 Q -1.7815697021484374 0.3545 -1.7785697021484372 0.3545 Q -1.7755697021484373 0.3545 -1.7750697021484374 0.3545 L -1.7750697021484374 0.3595 L -1.8150697021484374 0.3595 L -1.8150697021484374 0.323 Z M -1.8150697021484374 0.045999999999999985 L -1.8150697021484374 0.009499999999999953 L -1.7750697021484374 0.009499999999999953 L -1.7750697021484374 0.014499999999999957 Q -1.7755697021484373 0.014499999999999957 -1.7785697021484372 0.014499999999999957 Q -1.7815697021484374 0.014499999999999957 -1.7815697021484374 0.014499999999999957 Q -1.7945697021484373 0.014499999999999957 -1.8038197021484375 0.023749999999999993 Q -1.8130697021484374 0.032999999999999974 -1.8135697021484374 0.045999999999999985 L -1.8150697021484374 0.045999999999999985 Z M -1.6775938720703125 0.0020000000000000018 L -1.3870938720703125 0.312 L -1.3825938720703124 0.3665 L -1.6730938720703126 0.056999999999999995 L -1.6775938720703125 0.0020000000000000018 Z M -1.6765938720703124 0.32399999999999995 L -1.6765938720703124 0.3595 L -1.7180938720703125 0.3595 L -1.7180938720703125 0.3545 Q -1.7180938720703125 0.3545 -1.7135938720703126 0.3545 Q -1.7090938720703124 0.3545 -1.7085938720703124 0.3545 Q -1.6960938720703125 0.3545 -1.6870938720703124 0.3455 Q -1.6780938720703125 0.33649999999999997 -1.6780938720703125 0.32399999999999995 L -1.6765938720703124 0.32399999999999995 Z M -1.6550938720703126 0.32399999999999995 Q -1.6550938720703126 0.33649999999999997 -1.6460938720703124 0.3455 Q -1.6370938720703125 0.3545 -1.6245938720703124 0.3545 Q -1.6240938720703124 0.3545 -1.6195938720703125 0.3545 Q -1.6150938720703125 0.3545 -1.6150938720703125 0.3545 L -1.6150938720703125 0.3595 L -1.6565938720703124 0.3595 L -1.6565938720703124 0.32399999999999995 L -1.6550938720703126 0.32399999999999995 Z M -1.6775938720703125 0.0020000000000000018 L -1.6555938720703125 0.02999999999999997 L -1.6550938720703126 0.3595 L -1.6780938720703125 0.3595 L -1.6780938720703125 0.0645 Q -1.6780938720703125 0.03899999999999998 -1.6803438720703125 0.020499999999999963 Q -1.6825938720703124 0.0020000000000000018 -1.6825938720703124 0.0020000000000000018 L -1.6775938720703125 0.0020000000000000018 Z M -1.3825938720703124 0.009499999999999953 L -1.3825938720703124 0.3025 Q -1.3825938720703124 0.3185 -1.3815938720703125 0.33325 Q -1.3805938720703126 0.348 -1.3793438720703124 0.35725 Q -1.3780938720703124 0.3665 -1.3780938720703124 0.3665 L -1.3825938720703124 0.3665 L -1.4050938720703123 0.33999999999999997 L -1.4050938720703123 0.009499999999999953 L -1.3825938720703124 0.009499999999999953 Z M -1.3425938720703123 0.009499999999999953 L -1.3425938720703123 0.014499999999999957 Q -1.3425938720703123 0.014499999999999957 -1.3470938720703125 0.014499999999999957 Q -1.3515938720703125 0.014499999999999957 -1.3515938720703125 0.014499999999999957 Q -1.3640938720703124 0.014499999999999957 -1.3730938720703125 0.023249999999999993 Q -1.3820938720703124 0.03199999999999997 -1.3825938720703124 0.044999999999999984 L -1.3840938720703124 0.044999999999999984 L -1.3840938720703124 0.009499999999999953 L -1.3425938720703123 0.009499999999999953 Z M -1.4455938720703125 0.009499999999999953 L -1.4040938720703124 0.009499999999999953 L -1.4040938720703124 0.044999999999999984 L -1.4050938720703123 0.044999999999999984 Q -1.4055938720703125 0.03199999999999997 -1.4143438720703125 0.023249999999999993 Q -1.4230938720703126 0.014499999999999957 -1.4360938720703125 0.014499999999999957 Q -1.4360938720703125 0.014499999999999957 -1.4405938720703124 0.014499999999999957 Q -1.4450938720703124 0.014499999999999957 -1.4455938720703125 0.014499999999999957 L -1.4455938720703125 0.009499999999999953 Z M -0.9706324462890625 0.21949999999999997 L -0.9706324462890625 0.302 Q -0.9821324462890626 0.317 -1.0016324462890625 0.33199999999999996 Q -1.0211324462890625 0.347 -1.0493824462890626 0.35675 Q -1.0776324462890625 0.3665 -1.1156324462890626 0.3665 Q -1.1686324462890625 0.366 -1.2091324462890625 0.34325 Q -1.2496324462890627 0.3205 -1.2723824462890625 0.27975 Q -1.2951324462890625 0.239 -1.2951324462890625 0.18449999999999997 Q -1.2951324462890625 0.12999999999999998 -1.2723824462890625 0.08899999999999997 Q -1.2496324462890627 0.04799999999999999 -1.2091324462890625 0.025249999999999995 Q -1.1686324462890625 0.0025000000000000022 -1.1156324462890626 0.0025000000000000022 Q -1.0881324462890625 0.0025000000000000022 -1.0661324462890627 0.007000000000000006 Q -1.0441324462890624 0.011499999999999955 -1.0263824462890625 0.01924999999999999 Q -1.0086324462890626 0.02699999999999997 -0.9941324462890626 0.03649999999999998 L -0.9841324462890626 0.10699999999999998 L -0.9886324462890625 0.10699999999999998 Q -0.9961324462890626 0.07799999999999996 -1.0133824462890626 0.05824999999999997 Q -1.0306324462890626 0.03849999999999998 -1.0566324462890626 0.02799999999999997 Q -1.0826324462890626 0.01749999999999996 -1.1156324462890626 0.01749999999999996 Q -1.1576324462890626 0.01749999999999996 -1.1896324462890626 0.03849999999999998 Q -1.2216324462890626 0.0595 -1.2396324462890627 0.09699999999999998 Q -1.2576324462890627 0.13449999999999998 -1.2576324462890627 0.18449999999999997 Q -1.2576324462890627 0.2345 -1.2396324462890627 0.27199999999999996 Q -1.2216324462890626 0.3095 -1.1896324462890626 0.33025 Q -1.1576324462890626 0.351 -1.1156324462890626 0.3515 Q -1.0936324462890625 0.3515 -1.0733824462890627 0.34625 Q -1.0531324462890626 0.34099999999999997 -1.0351324462890625 0.33125 Q -1.0171324462890625 0.3215 -1.0031324462890625 0.308 L -1.0026324462890626 0.21949999999999997 Q -1.0026324462890626 0.19699999999999998 -1.0281324462890626 0.19699999999999998 L -1.0361324462890626 0.19699999999999998 L -1.0361324462890626 0.19199999999999998 L -0.9381324462890626 0.19199999999999998 L -0.9381324462890626 0.19699999999999998 L -0.9456324462890626 0.19699999999999998 Q -0.9716324462890626 0.19699999999999998 -0.9706324462890625 0.21949999999999997 Z M -0.6116761474609376 0.0025000000000000022 L -0.46367614746093755 0.3565 L -0.5061761474609375 0.3565 L -0.6216761474609376 0.04999999999999999 L -0.6116761474609376 0.0025000000000000022 Z M -0.7191761474609375 0.323 Q -0.7226761474609376 0.33299999999999996 -0.7201761474609376 0.33999999999999997 Q -0.7176761474609376 0.347 -0.7119261474609375 0.35075 Q -0.7061761474609376 0.3545 -0.7001761474609376 0.3545 L -0.6956761474609375 0.3545 L -0.6956761474609375 0.3595 L -0.7961761474609376 0.3595 L -0.7961761474609376 0.3545 Q -0.7961761474609376 0.3545 -0.7939261474609376 0.3545 Q -0.7916761474609375 0.3545 -0.7916761474609375 0.3545 Q -0.7801761474609376 0.3545 -0.7679261474609376 0.34725 Q -0.7556761474609376 0.33999999999999997 -0.7476761474609376 0.323 L -0.7191761474609375 0.323 Z M -0.6116761474609376 0.0025000000000000022 L -0.6071761474609376 0.03749999999999998 L -0.7326761474609376 0.358 L -0.7626761474609376 0.358 L -0.6346761474609376 0.05399999999999999 Q -0.6346761474609376 0.05399999999999999 -0.6319261474609376 0.04774999999999996 Q -0.6291761474609375 0.04149999999999998 -0.6254261474609375 0.03249999999999997 Q -0.6216761474609376 0.023499999999999965 -0.6189261474609375 0.014999999999999958 Q -0.6161761474609375 0.006500000000000006 -0.6161761474609375 0.0025000000000000022 L -0.6116761474609376 0.0025000000000000022 Z M -0.5411761474609376 0.22299999999999998 L -0.5411761474609376 0.238 L -0.6976761474609375 0.238 L -0.6976761474609375 0.22299999999999998 L -0.5411761474609376 0.22299999999999998 Z M -0.5186761474609376 0.323 L -0.47767614746093756 0.323 Q -0.47017614746093755 0.33999999999999997 -0.45767614746093754 0.34725 Q -0.44517614746093753 0.3545 -0.4336761474609376 0.3545 Q -0.4336761474609376 0.3545 -0.4316761474609376 0.3545 Q -0.4296761474609376 0.3545 -0.4296761474609376 0.3545 L -0.4296761474609376 0.3595 L -0.5421761474609376 0.3595 L -0.5421761474609376 0.3545 L -0.5376761474609375 0.3545 Q -0.5281761474609376 0.3545 -0.5206761474609376 0.34625 Q -0.5131761474609375 0.33799999999999997 -0.5186761474609376 0.323 Z M -0.36718859863281256 0.0020000000000000018 L -0.07668859863281258 0.312 L -0.07218859863281257 0.3665 L -0.36268859863281255 0.056999999999999995 L -0.36718859863281256 0.0020000000000000018 Z M -0.36618859863281256 0.32399999999999995 L -0.36618859863281256 0.3595 L -0.40768859863281254 0.3595 L -0.40768859863281254 0.3545 Q -0.40768859863281254 0.3545 -0.40318859863281253 0.3545 Q -0.3986885986328126 0.3545 -0.39818859863281253 0.3545 Q -0.3856885986328126 0.3545 -0.37668859863281257 0.3455 Q -0.36768859863281256 0.33649999999999997 -0.36768859863281256 0.32399999999999995 L -0.36618859863281256 0.32399999999999995 Z M -0.34468859863281254 0.32399999999999995 Q -0.34468859863281254 0.33649999999999997 -0.33568859863281253 0.3455 Q -0.3266885986328125 0.3545 -0.31418859863281257 0.3545 Q -0.31368859863281257 0.3545 -0.30918859863281256 0.3545 Q -0.30468859863281256 0.3545 -0.30468859863281256 0.3545 L -0.30468859863281256 0.3595 L -0.34618859863281254 0.3595 L -0.34618859863281254 0.32399999999999995 L -0.34468859863281254 0.32399999999999995 Z M -0.36718859863281256 0.0020000000000000018 L -0.34518859863281254 0.02999999999999997 L -0.34468859863281254 0.3595 L -0.36768859863281256 0.3595 L -0.36768859863281256 0.0645 Q -0.36768859863281256 0.03899999999999998 -0.36993859863281253 0.020499999999999963 Q -0.37218859863281256 0.0020000000000000018 -0.37218859863281256 0.0020000000000000018 L -0.36718859863281256 0.0020000000000000018 Z M -0.07218859863281257 0.009499999999999953 L -0.07218859863281257 0.3025 Q -0.07218859863281257 0.3185 -0.07118859863281257 0.33325 Q -0.07018859863281257 0.348 -0.06893859863281254 0.35725 Q -0.06768859863281257 0.3665 -0.06768859863281257 0.3665 L -0.07218859863281257 0.3665 L -0.09468859863281254 0.33999999999999997 L -0.09468859863281254 0.009499999999999953 L -0.07218859863281257 0.009499999999999953 Z M -0.03218859863281254 0.009499999999999953 L -0.03218859863281254 0.014499999999999957 Q -0.03218859863281254 0.014499999999999957 -0.03668859863281254 0.014499999999999957 Q -0.041188598632812545 0.014499999999999957 -0.041188598632812545 0.014499999999999957 Q -0.053688598632812556 0.014499999999999957 -0.06268859863281256 0.023249999999999993 Q -0.07168859863281257 0.03199999999999997 -0.07218859863281257 0.044999999999999984 L -0.07368859863281257 0.044999999999999984 L -0.07368859863281257 0.009499999999999953 L -0.03218859863281254 0.009499999999999953 Z M -0.13518859863281257 0.009499999999999953 L -0.09368859863281254 0.009499999999999953 L -0.09368859863281254 0.044999999999999984 L -0.09468859863281254 0.044999999999999984 Q -0.09518859863281254 0.03199999999999997 -0.10393859863281257 0.023249999999999993 Q -0.11268859863281255 0.014499999999999957 -0.12568859863281256 0.014499999999999957 Q -0.12568859863281256 0.014499999999999957 -0.13018859863281257 0.014499999999999957 Q -0.13468859863281257 0.014499999999999957 -0.13518859863281257 0.014499999999999957 L -0.13518859863281257 0.009499999999999953 Z M 0.18977770996093746 0.009499999999999953 Q 0.24327770996093745 0.009499999999999953 0.28352770996093746 0.03125 Q 0.32377770996093747 0.05299999999999999 0.34652770996093746 0.09249999999999997 Q 0.36927770996093745 0.13199999999999998 0.36927770996093745 0.18449999999999997 Q 0.36927770996093745 0.237 0.34652770996093746 0.27625 Q 0.32377770996093747 0.3155 0.28352770996093746 0.33749999999999997 Q 0.24327770996093745 0.3595 0.18977770996093746 0.3595 L 0.08277770996093745 0.3595 L 0.08227770996093745 0.3445 Q 0.08227770996093745 0.3445 0.09302770996093745 0.3445 Q 0.10377770996093745 0.3445 0.12002770996093745 0.3445 Q 0.13627770996093744 0.3445 0.15227770996093745 0.3445 Q 0.16827770996093744 0.3445 0.17902770996093745 0.3445 Q 0.18977770996093746 0.3445 0.18977770996093746 0.3445 Q 0.23277770996093744 0.3445 0.26452770996093744 0.3245 Q 0.29627770996093744 0.3045 0.31402770996093743 0.26849999999999996 Q 0.3317777099609375 0.23249999999999998 0.3317777099609375 0.18449999999999997 Q 0.3317777099609375 0.13649999999999998 0.31402770996093743 0.10049999999999998 Q 0.29627770996093744 0.0645 0.26427770996093747 0.044499999999999984 Q 0.23227770996093744 0.024499999999999966 0.18977770996093746 0.024499999999999966 Q 0.18977770996093746 0.024499999999999966 0.17852770996093745 0.024499999999999966 Q 0.16727770996093744 0.024499999999999966 0.15052770996093745 0.024499999999999966 Q 0.13377770996093746 0.024499999999999966 0.11702770996093745 0.024499999999999966 Q 0.10027770996093745 0.024499999999999966 0.08877770996093745 0.024499999999999966 Q 0.07727770996093745 0.024499999999999966 0.07727770996093745 0.024499999999999966 L 0.07727770996093745 0.009499999999999953 L 0.18977770996093746 0.009499999999999953 Z M 0.09127770996093745 0.009499999999999953 L 0.09127770996093745 0.3595 L 0.05877770996093745 0.3595 L 0.05877770996093745 0.009499999999999953 L 0.09127770996093745 0.009499999999999953 Z M 0.06027770996093745 0.323 L 0.06027770996093745 0.3595 L 0.020277709960937446 0.3595 L 0.020277709960937446 0.3545 Q 0.020277709960937446 0.3545 0.02352770996093745 0.3545 Q 0.026777709960937444 0.3545 0.026777709960937444 0.3545 Q 0.03977770996093745 0.3545 0.04902770996093745 0.34525 Q 0.05827770996093745 0.33599999999999997 0.05877770996093745 0.323 L 0.06027770996093745 0.323 Z M 0.06027770996093745 0.045999999999999985 L 0.05877770996093745 0.045999999999999985 Q 0.05877770996093745 0.032999999999999974 0.04927770996093745 0.023749999999999993 Q 0.03977770996093745 0.014499999999999957 0.026777709960937444 0.014499999999999957 Q 0.026777709960937444 0.014499999999999957 0.02377770996093745 0.014499999999999957 Q 0.020777709960937446 0.014499999999999957 0.020777709960937446 0.014499999999999957 L 0.020277709960937446 0.009499999999999953 L 0.06027770996093745 0.009499999999999953 L 0.06027770996093745 0.045999999999999985 Z M 0.7046944580078125 0.010999999999999954 L 0.7046944580078125 0.3595 L 0.6721944580078125 0.3595 L 0.6721944580078125 0.010999999999999954 L 0.7046944580078125 0.010999999999999954 Z M 0.8331944580078124 0.008999999999999952 L 0.8331944580078124 0.023999999999999966 L 0.5436944580078125 0.023999999999999966 L 0.5436944580078125 0.008999999999999952 L 0.8331944580078124 0.008999999999999952 Z M 0.8331944580078124 0.022499999999999964 L 0.8331944580078124 0.063 L 0.8281944580078124 0.0625 L 0.8281944580078124 0.05399999999999999 Q 0.8281944580078124 0.04149999999999998 0.8194444580078124 0.032999999999999974 Q 0.8106944580078125 0.024499999999999966 0.7986944580078125 0.023999999999999966 L 0.7986944580078125 0.022499999999999964 L 0.8331944580078124 0.022499999999999964 Z M 0.8331944580078124 0 L 0.8331944580078124 0.014499999999999957 L 0.7721944580078125 0.008999999999999952 Q 0.7831944580078125 0.008999999999999952 0.7954444580078124 0.007500000000000007 Q 0.8076944580078125 0.006000000000000005 0.8181944580078124 0.0040000000000000036 Q 0.8286944580078124 0.0020000000000000018 0.8331944580078124 0 Z M 0.6736944580078125 0.323 L 0.6736944580078125 0.3595 L 0.6336944580078124 0.3595 L 0.6336944580078124 0.3545 Q 0.6336944580078124 0.3545 0.6369444580078125 0.3545 Q 0.6401944580078125 0.3545 0.6401944580078125 0.3545 Q 0.6531944580078125 0.3545 0.6624444580078125 0.34525 Q 0.6716944580078125 0.33599999999999997 0.6721944580078125 0.323 L 0.6736944580078125 0.323 Z M 0.7031944580078124 0.323 L 0.7046944580078125 0.323 Q 0.7051944580078124 0.33599999999999997 0.7144444580078124 0.34525 Q 0.7236944580078124 0.3545 0.7366944580078125 0.3545 Q 0.7366944580078125 0.3545 0.7399444580078125 0.3545 Q 0.7431944580078125 0.3545 0.7431944580078125 0.3545 L 0.7431944580078125 0.3595 L 0.7031944580078124 0.3595 L 0.7031944580078124 0.323 Z M 0.5781944580078124 0.022499999999999964 L 0.5781944580078124 0.023999999999999966 Q 0.5656944580078125 0.024499999999999966 0.5571944580078124 0.032999999999999974 Q 0.5486944580078125 0.04149999999999998 0.5486944580078125 0.05399999999999999 L 0.5486944580078125 0.0625 L 0.5436944580078125 0.063 L 0.5436944580078125 0.022499999999999964 L 0.5781944580078124 0.022499999999999964 Z M 0.5436944580078125 0 Q 0.5486944580078125 0.0020000000000000018 0.5589444580078125 0.0040000000000000036 Q 0.5691944580078124 0.006000000000000005 0.5816944580078125 0.007500000000000007 Q 0.5941944580078125 0.008999999999999952 0.6046944580078124 0.008999999999999952 L 0.5436944580078125 0.014499999999999957 L 0.5436944580078125 0 Z M 0.9486849365234374 0.009499999999999953 L 0.9486849365234374 0.3595 L 0.9161849365234375 0.3595 L 0.9161849365234375 0.009499999999999953 L 0.9486849365234374 0.009499999999999953 Z M 1.0836849365234376 0.344 L 1.0836849365234376 0.3595 L 0.9471849365234375 0.3595 L 0.9471849365234375 0.344 L 1.0836849365234376 0.344 Z M 1.0621849365234375 0.1795 L 1.0621849365234375 0.19449999999999998 L 0.9471849365234375 0.19449999999999998 L 0.9471849365234375 0.1795 L 1.0621849365234375 0.1795 Z M 1.0836849365234376 0.009499999999999953 L 1.0836849365234376 0.024999999999999967 L 0.9471849365234375 0.024999999999999967 L 0.9471849365234375 0.009499999999999953 L 1.0836849365234376 0.009499999999999953 Z M 1.1141849365234375 0.27849999999999997 L 1.0851849365234374 0.3595 L 1.0021849365234374 0.3595 L 1.0201849365234374 0.344 Q 1.0466849365234374 0.344 1.0634349365234375 0.33575 Q 1.0801849365234375 0.3275 1.0906849365234375 0.3125 Q 1.1011849365234374 0.2975 1.1091849365234374 0.27849999999999997 L 1.1141849365234375 0.27849999999999997 Z M 1.0621849365234375 0.19349999999999998 L 1.0621849365234375 0.22649999999999998 L 1.0571849365234374 0.22649999999999998 L 1.0571849365234374 0.21899999999999997 Q 1.0571849365234374 0.209 1.0501849365234375 0.20174999999999998 Q 1.0431849365234376 0.19449999999999998 1.0331849365234373 0.19449999999999998 L 1.0331849365234373 0.19349999999999998 L 1.0621849365234375 0.19349999999999998 Z M 1.0621849365234375 0.1475 L 1.0621849365234375 0.1805 L 1.0331849365234373 0.1805 L 1.0331849365234373 0.1795 Q 1.0431849365234376 0.179 1.0501849365234375 0.17174999999999999 Q 1.0571849365234374 0.16449999999999998 1.0571849365234374 0.15449999999999997 L 1.0571849365234374 0.1475 L 1.0621849365234375 0.1475 Z M 1.0836849365234376 0.023499999999999965 L 1.0836849365234376 0.0635 L 1.0786849365234374 0.0635 L 1.0786849365234374 0.05449999999999999 Q 1.0786849365234374 0.04249999999999998 1.0701849365234375 0.03375 Q 1.0616849365234375 0.024999999999999967 1.0491849365234374 0.024499999999999966 L 1.0491849365234374 0.023499999999999965 L 1.0836849365234376 0.023499999999999965 Z M 1.0836849365234376 0.0005000000000000004 L 1.0836849365234376 0.014999999999999958 L 1.0226849365234374 0.009499999999999953 Q 1.0336849365234375 0.009499999999999953 1.0459349365234374 0.007999999999999952 Q 1.0581849365234375 0.006500000000000006 1.0686849365234374 0.004500000000000004 Q 1.0791849365234374 0.0025000000000000022 1.0836849365234376 0.0005000000000000004 Z M 0.9176849365234374 0.323 L 0.9176849365234374 0.3595 L 0.8776849365234375 0.3595 L 0.8776849365234375 0.3545 Q 0.8776849365234375 0.3545 0.8809349365234375 0.3545 Q 0.8841849365234374 0.3545 0.8841849365234374 0.3545 Q 0.8971849365234374 0.3545 0.9064349365234374 0.34525 Q 0.9156849365234374 0.33599999999999997 0.9161849365234375 0.323 L 0.9176849365234374 0.323 Z M 0.9176849365234374 0.045999999999999985 L 0.9161849365234375 0.045999999999999985 Q 0.9161849365234375 0.032999999999999974 0.9066849365234375 0.023749999999999993 Q 0.8971849365234374 0.014499999999999957 0.8841849365234374 0.014499999999999957 Q 0.8841849365234374 0.014499999999999957 0.8811849365234374 0.014499999999999957 Q 0.8781849365234374 0.014499999999999957 0.8781849365234374 0.014499999999999957 L 0.8776849365234375 0.009499999999999953 L 0.9176849365234374 0.009499999999999953 L 0.9176849365234374 0.045999999999999985 Z M 1.4861578369140624 0.2135 L 1.4801578369140624 0.292 Q 1.4671578369140625 0.3135 1.4474078369140626 0.33025 Q 1.4276578369140625 0.347 1.4009078369140624 0.35675 Q 1.3741578369140623 0.3665 1.3396578369140624 0.3665 Q 1.2876578369140625 0.366 1.2471578369140626 0.34349999999999997 Q 1.2066578369140624 0.321 1.1839078369140625 0.28025 Q 1.1611578369140625 0.2395 1.1611578369140625 0.18399999999999997 Q 1.1611578369140625 0.12949999999999998 1.1836578369140625 0.08875 Q 1.2061578369140624 0.04799999999999999 1.2469078369140625 0.025249999999999995 Q 1.2876578369140625 0.0025000000000000022 1.3426578369140625 0.0025000000000000022 Q 1.3796578369140624 0.0025000000000000022 1.4094078369140624 0.012249999999999983 Q 1.4391578369140625 0.021999999999999964 1.4611578369140625 0.03649999999999998 L 1.4711578369140625 0.10699999999999998 L 1.4666578369140626 0.10699999999999998 Q 1.4556578369140625 0.063 1.4216578369140624 0.04024999999999995 Q 1.3876578369140624 0.01749999999999996 1.3426578369140625 0.01749999999999996 Q 1.2986578369140624 0.01749999999999996 1.2664078369140626 0.038250000000000006 Q 1.2341578369140624 0.059 1.2164078369140625 0.09625 Q 1.1986578369140624 0.13349999999999998 1.1986578369140624 0.1835 Q 1.1986578369140624 0.23349999999999999 1.2164078369140625 0.271 Q 1.2341578369140624 0.3085 1.2659078369140624 0.3295 Q 1.2976578369140626 0.3505 1.3396578369140624 0.3515 Q 1.3751578369140625 0.3515 1.4054078369140623 0.33825 Q 1.4356578369140625 0.32499999999999996 1.4561578369140624 0.29474999999999996 Q 1.4766578369140624 0.26449999999999996 1.4821578369140624 0.2135 L 1.4861578369140624 0.2135 Z M 1.8541322021484374 0.009499999999999953 L 1.8541322021484374 0.3595 L 1.8216322021484372 0.3595 L 1.8216322021484372 0.009499999999999953 L 1.8541322021484374 0.009499999999999953 Z M 1.6171322021484373 0.009499999999999953 L 1.6171322021484373 0.3595 L 1.5846322021484374 0.3595 L 1.5846322021484374 0.009499999999999953 L 1.6171322021484373 0.009499999999999953 Z M 1.8261322021484374 0.179 L 1.8261322021484374 0.19399999999999998 L 1.6121322021484374 0.19399999999999998 L 1.6121322021484374 0.179 L 1.8261322021484374 0.179 Z M 1.5861322021484374 0.323 L 1.5861322021484374 0.3595 L 1.5461322021484374 0.3595 L 1.5461322021484374 0.3545 Q 1.5461322021484374 0.3545 1.5493822021484374 0.3545 Q 1.5526322021484373 0.3545 1.5526322021484373 0.3545 Q 1.5656322021484375 0.3545 1.5748822021484374 0.34525 Q 1.5841322021484374 0.33599999999999997 1.5846322021484374 0.323 L 1.5861322021484374 0.323 Z M 1.5861322021484374 0.045999999999999985 L 1.5846322021484374 0.045999999999999985 Q 1.5841322021484374 0.032999999999999974 1.5748822021484374 0.023749999999999993 Q 1.5656322021484375 0.014499999999999957 1.5526322021484373 0.014499999999999957 Q 1.5526322021484373 0.014499999999999957 1.5493822021484374 0.014499999999999957 Q 1.5461322021484374 0.014499999999999957 1.5461322021484374 0.014499999999999957 L 1.5461322021484374 0.009499999999999953 L 1.5861322021484374 0.009499999999999953 L 1.5861322021484374 0.045999999999999985 Z M 1.6156322021484373 0.323 L 1.6171322021484373 0.323 Q 1.6176322021484373 0.33599999999999997 1.6268822021484373 0.34525 Q 1.6361322021484375 0.3545 1.6491322021484374 0.3545 Q 1.6491322021484374 0.3545 1.6521322021484375 0.3545 Q 1.6551322021484374 0.3545 1.6556322021484373 0.3545 L 1.6556322021484373 0.3595 L 1.6156322021484373 0.3595 L 1.6156322021484373 0.323 Z M 1.6156322021484373 0.045999999999999985 L 1.6156322021484373 0.009499999999999953 L 1.6556322021484373 0.009499999999999953 L 1.6556322021484373 0.014499999999999957 Q 1.6551322021484374 0.014499999999999957 1.6521322021484375 0.014499999999999957 Q 1.6491322021484374 0.014499999999999957 1.6491322021484374 0.014499999999999957 Q 1.6361322021484375 0.014499999999999957 1.6268822021484373 0.023749999999999993 Q 1.6176322021484373 0.032999999999999974 1.6171322021484373 0.045999999999999985 L 1.6156322021484373 0.045999999999999985 Z M 1.8231322021484373 0.323 L 1.8231322021484373 0.3595 L 1.7831322021484373 0.3595 L 1.7831322021484373 0.3545 Q 1.7836322021484374 0.3545 1.7866322021484373 0.3545 Q 1.7896322021484374 0.3545 1.7896322021484374 0.3545 Q 1.8026322021484373 0.3545 1.8121322021484374 0.34525 Q 1.8216322021484372 0.33599999999999997 1.8216322021484372 0.323 L 1.8231322021484373 0.323 Z M 1.8231322021484373 0.045999999999999985 L 1.8216322021484372 0.045999999999999985 Q 1.8216322021484372 0.032999999999999974 1.8121322021484374 0.023749999999999993 Q 1.8026322021484373 0.014499999999999957 1.7896322021484374 0.014499999999999957 Q 1.7896322021484374 0.014499999999999957 1.7866322021484373 0.014499999999999957 Q 1.7836322021484374 0.014499999999999957 1.7831322021484373 0.014499999999999957 L 1.7831322021484373 0.009499999999999953 L 1.8231322021484373 0.009499999999999953 L 1.8231322021484373 0.045999999999999985 Z M 1.8526322021484374 0.323 L 1.8541322021484374 0.323 Q 1.8546322021484374 0.33599999999999997 1.8638822021484374 0.34525 Q 1.8731322021484373 0.3545 1.8861322021484375 0.3545 Q 1.8861322021484375 0.3545 1.8893822021484374 0.3545 Q 1.8926322021484374 0.3545 1.8926322021484374 0.3545 L 1.8926322021484374 0.3595 L 1.8526322021484374 0.3595 L 1.8526322021484374 0.323 Z M 1.8526322021484374 0.045999999999999985 L 1.8526322021484374 0.009499999999999953 L 1.8926322021484374 0.009499999999999953 L 1.8926322021484374 0.014499999999999957 Q 1.8926322021484374 0.014499999999999957 1.8893822021484374 0.014499999999999957 Q 1.8861322021484375 0.014499999999999957 1.8861322021484375 0.014499999999999957 Q 1.8731322021484373 0.014499999999999957 1.8638822021484374 0.023749999999999993 Q 1.8546322021484374 0.032999999999999974 1.8541322021484374 0.045999999999999985 L 1.8526322021484374 0.045999999999999985 Z M 1.9906263427734372 0.0020000000000000018 L 2.281126342773437 0.312 L 2.2856263427734373 0.3665 L 1.9951263427734371 0.056999999999999995 L 1.9906263427734372 0.0020000000000000018 Z M 1.9916263427734373 0.32399999999999995 L 1.9916263427734373 0.3595 L 1.9501263427734372 0.3595 L 1.9501263427734372 0.3545 Q 1.9501263427734372 0.3545 1.9546263427734372 0.3545 Q 1.9591263427734373 0.3545 1.9596263427734373 0.3545 Q 1.9721263427734372 0.3545 1.9811263427734374 0.3455 Q 1.9901263427734373 0.33649999999999997 1.9901263427734373 0.32399999999999995 L 1.9916263427734373 0.32399999999999995 Z M 2.0131263427734374 0.32399999999999995 Q 2.0131263427734374 0.33649999999999997 2.0221263427734373 0.3455 Q 2.031126342773437 0.3545 2.0436263427734374 0.3545 Q 2.044126342773437 0.3545 2.0486263427734372 0.3545 Q 2.0531263427734374 0.3545 2.0531263427734374 0.3545 L 2.0531263427734374 0.3595 L 2.0116263427734373 0.3595 L 2.0116263427734373 0.32399999999999995 L 2.0131263427734374 0.32399999999999995 Z M 1.9906263427734372 0.0020000000000000018 L 2.012626342773437 0.02999999999999997 L 2.0131263427734374 0.3595 L 1.9901263427734373 0.3595 L 1.9901263427734373 0.0645 Q 1.9901263427734373 0.03899999999999998 1.9878763427734372 0.020499999999999963 Q 1.9856263427734373 0.0020000000000000018 1.9856263427734373 0.0020000000000000018 L 1.9906263427734372 0.0020000000000000018 Z M 2.2856263427734373 0.009499999999999953 L 2.2856263427734373 0.3025 Q 2.2856263427734373 0.3185 2.2866263427734372 0.33325 Q 2.287626342773437 0.348 2.2888763427734373 0.35725 Q 2.290126342773437 0.3665 2.290126342773437 0.3665 L 2.2856263427734373 0.3665 L 2.2631263427734374 0.33999999999999997 L 2.2631263427734374 0.009499999999999953 L 2.2856263427734373 0.009499999999999953 Z M 2.3256263427734374 0.009499999999999953 L 2.3256263427734374 0.014499999999999957 Q 2.3256263427734374 0.014499999999999957 2.321126342773437 0.014499999999999957 Q 2.3166263427734375 0.014499999999999957 2.3166263427734375 0.014499999999999957 Q 2.3041263427734373 0.014499999999999957 2.2951263427734374 0.023249999999999993 Q 2.286126342773437 0.03199999999999997 2.2856263427734373 0.044999999999999984 L 2.2841263427734373 0.044999999999999984 L 2.2841263427734373 0.009499999999999953 L 2.3256263427734374 0.009499999999999953 Z M 2.222626342773437 0.009499999999999953 L 2.2641263427734373 0.009499999999999953 L 2.2641263427734373 0.044999999999999984 L 2.2631263427734374 0.044999999999999984 Q 2.262626342773437 0.03199999999999997 2.253876342773437 0.023249999999999993 Q 2.245126342773437 0.014499999999999957 2.2321263427734372 0.014499999999999957 Q 2.2321263427734372 0.014499999999999957 2.227626342773437 0.014499999999999957 Q 2.2231263427734373 0.014499999999999957 2.222626342773437 0.014499999999999957 L 2.222626342773437 0.009499999999999953 Z M 2.5575877685546873 0.0025000000000000022 Q 2.611087768554687 0.0025000000000000022 2.651587768554687 0.025249999999999995 Q 2.6920877685546873 0.04799999999999999 2.714837768554687 0.08899999999999997 Q 2.737587768554687 0.12999999999999998 2.737587768554687 0.18449999999999997 Q 2.737587768554687 0.239 2.714837768554687 0.27999999999999997 Q 2.6920877685546873 0.321 2.651587768554687 0.34375 Q 2.611087768554687 0.3665 2.5575877685546873 0.3665 Q 2.5045877685546873 0.3665 2.464087768554687 0.34375 Q 2.423587768554687 0.321 2.400837768554687 0.27999999999999997 Q 2.3780877685546873 0.239 2.3780877685546873 0.18449999999999997 Q 2.3780877685546873 0.12999999999999998 2.400837768554687 0.08899999999999997 Q 2.423587768554687 0.04799999999999999 2.464087768554687 0.025249999999999995 Q 2.5045877685546873 0.0025000000000000022 2.5575877685546873 0.0025000000000000022 Z M 2.5575877685546873 0.3515 Q 2.6000877685546873 0.3515 2.631837768554687 0.33049999999999996 Q 2.663587768554687 0.3095 2.681337768554687 0.27199999999999996 Q 2.699087768554687 0.2345 2.699087768554687 0.18449999999999997 Q 2.699087768554687 0.13449999999999998 2.681337768554687 0.09699999999999998 Q 2.663587768554687 0.0595 2.631837768554687 0.03849999999999998 Q 2.6000877685546873 0.01749999999999996 2.5575877685546873 0.01749999999999996 Q 2.515587768554687 0.01749999999999996 2.4838377685546873 0.03849999999999998 Q 2.452087768554687 0.0595 2.434337768554687 0.09699999999999998 Q 2.4165877685546873 0.13449999999999998 2.4165877685546873 0.18449999999999997 Q 2.4165877685546873 0.2345 2.434337768554687 0.27199999999999996 Q 2.452087768554687 0.3095 2.4838377685546873 0.33049999999999996 Q 2.515587768554687 0.3515 2.5575877685546873 0.3515 Z M 2.858053833007812 0.009499999999999953 L 2.858053833007812 0.3595 L 2.8255538330078123 0.3595 L 2.8255538330078123 0.009499999999999953 L 2.858053833007812 0.009499999999999953 Z M 2.9930538330078122 0.344 L 2.9930538330078122 0.3595 L 2.856553833007812 0.3595 L 2.856553833007812 0.344 L 2.9930538330078122 0.344 Z M 3.023553833007812 0.27849999999999997 L 2.994553833007812 0.3595 L 2.911553833007812 0.3595 L 2.929553833007812 0.344 Q 2.956053833007812 0.344 2.972803833007812 0.33575 Q 2.989553833007812 0.3275 3.000053833007812 0.3125 Q 3.010553833007812 0.2975 3.018553833007812 0.27849999999999997 L 3.023553833007812 0.27849999999999997 Z M 2.827053833007812 0.323 L 2.827053833007812 0.3595 L 2.787053833007812 0.3595 L 2.787053833007812 0.3545 Q 2.787053833007812 0.3545 2.790303833007812 0.3545 Q 2.7935538330078122 0.3545 2.7935538330078122 0.3545 Q 2.806553833007812 0.3545 2.815803833007812 0.34525 Q 2.825053833007812 0.33599999999999997 2.8255538330078123 0.323 L 2.827053833007812 0.323 Z M 2.827053833007812 0.045999999999999985 L 2.8255538330078123 0.045999999999999985 Q 2.825053833007812 0.032999999999999974 2.815803833007812 0.023749999999999993 Q 2.806553833007812 0.014499999999999957 2.7935538330078122 0.014499999999999957 Q 2.7935538330078122 0.014499999999999957 2.790303833007812 0.014499999999999957 Q 2.787053833007812 0.014499999999999957 2.787053833007812 0.014499999999999957 L 2.787053833007812 0.009499999999999953 L 2.827053833007812 0.009499999999999953 L 2.827053833007812 0.045999999999999985 Z M 2.856553833007812 0.045999999999999985 L 2.856553833007812 0.009499999999999953 L 2.896553833007812 0.009499999999999953 L 2.896553833007812 0.014499999999999957 Q 2.8960538330078123 0.014499999999999957 2.893053833007812 0.014499999999999957 Q 2.890053833007812 0.014499999999999957 2.890053833007812 0.014499999999999957 Q 2.877053833007812 0.014499999999999957 2.867803833007812 0.023749999999999993 Q 2.858553833007812 0.032999999999999974 2.858053833007812 0.045999999999999985 L 2.856553833007812 0.045999999999999985 Z M 3.247519409179687 0.0025000000000000022 Q 3.3010194091796867 0.0025000000000000022 3.341519409179687 0.025249999999999995 Q 3.382019409179687 0.04799999999999999 3.404769409179687 0.08899999999999997 Q 3.427519409179687 0.12999999999999998 3.427519409179687 0.18449999999999997 Q 3.427519409179687 0.239 3.404769409179687 0.27999999999999997 Q 3.382019409179687 0.321 3.341519409179687 0.34375 Q 3.3010194091796867 0.3665 3.247519409179687 0.3665 Q 3.194519409179687 0.3665 3.154019409179687 0.34375 Q 3.1135194091796867 0.321 3.090769409179687 0.27999999999999997 Q 3.068019409179687 0.239 3.068019409179687 0.18449999999999997 Q 3.068019409179687 0.12999999999999998 3.090769409179687 0.08899999999999997 Q 3.1135194091796867 0.04799999999999999 3.154019409179687 0.025249999999999995 Q 3.194519409179687 0.0025000000000000022 3.247519409179687 0.0025000000000000022 Z M 3.247519409179687 0.3515 Q 3.290019409179687 0.3515 3.3217694091796868 0.33049999999999996 Q 3.353519409179687 0.3095 3.371269409179687 0.27199999999999996 Q 3.389019409179687 0.2345 3.389019409179687 0.18449999999999997 Q 3.389019409179687 0.13449999999999998 3.371269409179687 0.09699999999999998 Q 3.353519409179687 0.0595 3.3217694091796868 0.03849999999999998 Q 3.290019409179687 0.01749999999999996 3.247519409179687 0.01749999999999996 Q 3.205519409179687 0.01749999999999996 3.173769409179687 0.03849999999999998 Q 3.142019409179687 0.0595 3.124269409179687 0.09699999999999998 Q 3.106519409179687 0.13449999999999998 3.106519409179687 0.18449999999999997 Q 3.106519409179687 0.2345 3.124269409179687 0.27199999999999996 Q 3.142019409179687 0.3095 3.173769409179687 0.33049999999999996 Q 3.205519409179687 0.3515 3.247519409179687 0.3515 Z M 3.8114952392578116 0.21949999999999997 L 3.8114952392578116 0.302 Q 3.799995239257812 0.317 3.780495239257812 0.33199999999999996 Q 3.7609952392578117 0.347 3.7327452392578118 0.35675 Q 3.704495239257812 0.3665 3.6664952392578116 0.3665 Q 3.6134952392578117 0.366 3.572995239257812 0.34325 Q 3.5324952392578117 0.3205 3.509745239257812 0.27975 Q 3.4869952392578116 0.239 3.4869952392578116 0.18449999999999997 Q 3.4869952392578116 0.12999999999999998 3.509745239257812 0.08899999999999997 Q 3.5324952392578117 0.04799999999999999 3.572995239257812 0.025249999999999995 Q 3.6134952392578117 0.0025000000000000022 3.6664952392578116 0.0025000000000000022 Q 3.693995239257812 0.0025000000000000022 3.7159952392578117 0.007000000000000006 Q 3.737995239257812 0.011499999999999955 3.755745239257812 0.01924999999999999 Q 3.773495239257812 0.02699999999999997 3.787995239257812 0.03649999999999998 L 3.797995239257812 0.10699999999999998 L 3.793495239257812 0.10699999999999998 Q 3.785995239257812 0.07799999999999996 3.768745239257812 0.05824999999999997 Q 3.751495239257812 0.03849999999999998 3.725495239257812 0.02799999999999997 Q 3.699495239257812 0.01749999999999996 3.6664952392578116 0.01749999999999996 Q 3.624495239257812 0.01749999999999996 3.592495239257812 0.03849999999999998 Q 3.5604952392578118 0.0595 3.542495239257812 0.09699999999999998 Q 3.5244952392578117 0.13449999999999998 3.5244952392578117 0.18449999999999997 Q 3.5244952392578117 0.2345 3.542495239257812 0.27199999999999996 Q 3.5604952392578118 0.3095 3.592495239257812 0.33025 Q 3.624495239257812 0.351 3.6664952392578116 0.3515 Q 3.688495239257812 0.3515 3.7087452392578117 0.34625 Q 3.728995239257812 0.34099999999999997 3.746995239257812 0.33125 Q 3.7649952392578117 0.3215 3.778995239257812 0.308 L 3.7794952392578116 0.21949999999999997 Q 3.7794952392578116 0.19699999999999998 3.753995239257812 0.19699999999999998 L 3.745995239257812 0.19699999999999998 L 3.745995239257812 0.19199999999999998 L 3.843995239257812 0.19199999999999998 L 3.843995239257812 0.19699999999999998 L 3.836495239257812 0.19699999999999998 Q 3.8104952392578118 0.19699999999999998 3.8114952392578116 0.21949999999999997 Z M 3.935982055664062 0.009999999999999953 L 4.033982055664062 0.19249999999999998 L 4.012482055664062 0.21 L 3.8929820556640617 0.009999999999999953 L 3.935982055664062 0.009999999999999953 Z M 4.040982055664061 0.19849999999999998 L 4.040982055664061 0.3595 L 4.008482055664062 0.3595 L 4.008482055664062 0.19849999999999998 L 4.040982055664061 0.19849999999999998 Z M 4.129982055664062 0.009999999999999953 L 4.160482055664062 0.009999999999999953 L 4.037482055664062 0.209 L 4.019482055664062 0.2035 L 4.129982055664062 0.009999999999999953 Z M 4.109482055664062 0.045499999999999985 Q 4.113982055664062 0.03849999999999998 4.111982055664062 0.03125 Q 4.109982055664061 0.023999999999999966 4.104482055664062 0.01924999999999999 Q 4.098982055664062 0.014499999999999957 4.091982055664062 0.014499999999999957 Q 4.091982055664062 0.014499999999999957 4.0889820556640615 0.014499999999999957 Q 4.085982055664061 0.014499999999999957 4.085982055664061 0.014499999999999957 L 4.085982055664061 0.009499999999999953 L 4.196982055664062 0.009499999999999953 L 4.196982055664062 0.014499999999999957 L 4.1899820556640615 0.014499999999999957 Q 4.174482055664062 0.014499999999999957 4.1609820556640615 0.023499999999999965 Q 4.147482055664062 0.03249999999999997 4.139482055664062 0.043999999999999984 L 4.109482055664062 0.045499999999999985 Z M 3.9549820556640616 0.045499999999999985 L 3.9129820556640618 0.043999999999999984 Q 3.9059820556640616 0.03249999999999997 3.8924820556640616 0.023499999999999965 Q 3.8789820556640615 0.014499999999999957 3.8629820556640615 0.014499999999999957 L 3.855982055664062 0.014499999999999957 L 3.855982055664062 0.009499999999999953 L 3.9789820556640616 0.009499999999999953 L 3.9789820556640616 0.014499999999999957 Q 3.9789820556640616 0.014499999999999957 3.9757320556640616 0.014499999999999957 Q 3.9724820556640617 0.014499999999999957 3.9724820556640617 0.014499999999999957 Q 3.9614820556640615 0.014499999999999957 3.9557320556640616 0.024749999999999994 Q 3.9499820556640617 0.034999999999999976 3.9549820556640616 0.045499999999999985 Z M 4.009482055664062 0.323 L 4.009482055664062 0.3595 L 3.9699820556640617 0.3595 L 3.9699820556640617 0.3545 Q 3.9699820556640617 0.3545 3.972982055664062 0.3545 Q 3.975982055664062 0.3545 3.9764820556640617 0.3545 Q 3.9894820556640616 0.3545 3.9987320556640618 0.34525 Q 4.007982055664062 0.33599999999999997 4.008482055664062 0.323 L 4.009482055664062 0.323 Z M 4.039482055664061 0.323 L 4.040982055664061 0.323 Q 4.040982055664061 0.33599999999999997 4.0504820556640615 0.34525 Q 4.059982055664062 0.3545 4.0729820556640615 0.3545 Q 4.0729820556640615 0.3545 4.075982055664062 0.3545 Q 4.078982055664062 0.3545 4.078982055664062 0.3545 L 4.078982055664062 0.3595 L 4.039482055664061 0.3595 L 4.039482055664061 0.323 Z" fill="#225777" fill-rule="nonzero"></path></g><g clip-path="url(&quot;#SvgjsClipPath1040&quot;)"><path d=" M 0.989535636197516 -2.624698737402297 L -0.989535636197516 -2.624698737402297 L -0.989535636197516 -0.6456274650072649 L 0.989535636197516 -0.6456274650072649 Z M -1.0236570554929125 -2.6588201566976934 L -1.0236570554929125 -0.6115060457118684 L 1.0236570554929125 -0.6115060457118684 L 1.0236570554929125 -2.6588201566976934 Z" fill="#004a80" transform="matrix(1,0,0,1,0,0)" fill-rule="evenodd"></path><path d=" M 0 -3.0345755912464063 L -1.3994124900416256 -1.635163101204781 L 0 -0.2357506111631551 L 1.3994124900416258 -1.635163101204781 Z M -1.447663101204781 -1.635163101204781 L 0 -0.1875 L 1.447663101204781 -1.635163101204781 L 0 -3.082826202409562 Z" fill="#004a80" transform="matrix(1,0,0,1,0,0)" fill-rule="evenodd"></path><path d=" M 0.36219083129042406 -2.986889568692721 L -1.3517264674879401 -1.9973539324952052 L -0.3621908312904243 -0.28343663371684125 L 1.3517264674879397 -1.272972269914357 Z M -1.398341219346734 -2.0098472650586023 L -0.37468416385382164 -0.23682188185804698 L 1.398341219346734 -1.2604789373509595 L 0.3746841638538214 -3.033504320551515 Z" fill="#004a80" transform="matrix(1,0,0,1,0,0)" fill-rule="evenodd"></path><path d=" M 1.3517264674879397 -1.9973539324952052 L -0.3621908312904243 -2.986889568692721 L -1.3517264674879401 -1.2729722699143569 L 0.36219083129042384 -0.28343663371684125 Z M -0.37468416385382164 -3.033504320551515 L -1.398341219346734 -1.2604789373509595 L 0.3746841638538214 -0.23682188185804698 L 1.398341219346734 -2.0098472650586023 Z" fill="#004a80" transform="matrix(1,0,0,1,0,0)" fill-rule="evenodd"></path><path d=" M 0.6996990067053068 -2.847088743009375 L -1.2119256418045945 -2.3348621079100877 L -0.6996990067053067 -0.42323745940018664 L 1.2119256418045943 -0.9354640944994741 Z M -1.2536762456433403 -2.3589946518071714 L -0.7238315506023905 -0.381486855561441 L 1.25367624564334 -0.9113315506023905 L 0.7238315506023905 -2.8888393468481213 Z" fill="#004a80" transform="matrix(1,0,0,1,0,0)" fill-rule="evenodd"></path><path d=" M 1.2119256418045943 -2.3348621079100877 L -0.6996990067053067 -2.847088743009375 L -1.2119256418045945 -0.9354640944994741 L 0.6996990067053068 -0.42323745940018664 Z M -0.7238315506023905 -2.8888393468481213 L -1.2536762456433403 -0.9113315506023905 L 0.7238315506023905 -0.381486855561441 L 1.25367624564334 -2.3589946518071714 Z" fill="#004a80" transform="matrix(1,0,0,1,0,0)" fill-rule="evenodd"></path><path d=" M 0.455708770956619 -2.159171476459918 C 0.47778489209128727 -2.1591714764415557 0.49768721436332397 -2.145873023063394 0.5061351721929275 -2.1254772604431387 C 0.5145831300225312 -2.1050814978228836 0.5099130107569143 -2.0816050994595052 0.4943025174559328 -2.0659952428537394 C 0.47869202415495127 -2.0503853862479735 0.4552154353300455 -2.045716224522628 0.43482001729524034 -2.054165014231107 C 0.4144245992604352 -2.0626138039395863 0.40112695765319084 -2.0825166686016496 0.40112785805783724 -2.104592789717956 C 0.40113154584322785 -2.1347351077438406 0.4255664528055636 -2.159169018095162 0.45570877095670426 -2.1591714764599184 Z M -0.5882296602604593 -1.4375093156780618 C -0.6690781874634142 -1.4637229151990723 -0.7238337338192937 -1.539038108089281 -0.7238337338192937 -1.6240300909508123 C -0.7238337338192937 -1.7090220738123434 -0.6690781874634142 -1.7843372667025525 -0.5882296602604593 -1.8105508662235628 C -0.6265958630745126 -1.8709184296549433 -0.6290392281554695 -1.9473899179364142 -0.5946049931689443 -2.0100835515358764 C -0.5601707581824197 -2.0727771851353385 -0.4943249425948427 -2.111741105914808 -0.4227972685381678 -2.111749883892423 C -0.42222292007875484 -2.111749883892423 -0.4216574762466201 -2.1117320746378674 -0.42109203241448445 -2.1117320746378674 C -0.3845066098938956 -2.1973640140991826 -0.2927349044889178 -2.2454478034494096 -0.2015042898381385 -2.2267850826574866 C -0.11027367518735898 -2.208122361865563 -0.04475675141622237 -2.127862599775322 -0.044737960521672004 -2.0347426671947053 L -0.044737960521672004 -1.9920828240639707 L -0.13825880850592043 -1.9920828240639707 C -0.13964644625669842 -1.993715339064886 -0.14109196408478186 -1.995283295518038 -0.1425953619901703 -1.9967866934234262 C -0.16494074770729883 -2.019139188649241 -0.19855128956078993 -2.0258289093299817 -0.22775254967166725 -2.0137360720448676 C -0.2569538097825437 -2.0016432347597526 -0.27599423732861816 -1.973149673990093 -0.27599423732861816 -1.9415434988708644 C -0.27599423732861816 -1.909937323751636 -0.2569538097825437 -1.8814437629819758 -0.22775254967166725 -1.8693509256968617 C -0.19855128956078993 -1.857258088411747 -0.16494074770729883 -1.863947809092488 -0.1425953619901703 -1.8863003043183026 C -0.14034168986031248 -1.8885519241021043 -0.1382259628905793 -1.8909375066199792 -0.13625971968207296 -1.8934440415518534 L -0.04801263720305338 -1.8934573984927696 L -0.04472682973757469 -1.89017604334093 L -0.04472682973757469 -1.7851771307957012 L -0.24104492117263554 -1.7851771307957012 C -0.259713609027753 -1.8114876419791297 -0.2928348333844062 -1.8233268898179686 -0.3239518014437366 -1.814812360837472 C -0.35506876950306676 -1.8062978318569753 -0.3775478748028174 -1.779244678303351 -0.38022002606066585 -1.747094678107079 C -0.38289217731851366 -1.7149446779108073 -0.3651877174965892 -1.6845516623531651 -0.3359033813945409 -1.6710168714782618 C -0.3066190452924922 -1.657482080603359 -0.2719977535200351 -1.6636909008036567 -0.24924163058177662 -1.6865583836949585 L -0.08436132575070387 -1.6865583836949585 L -0.04473573436485223 -1.6469327923091066 L -0.04473573436485223 -1.589386638526845 L -0.04802154183033114 -1.5861141880022827 L -0.2879634022989399 -1.5861141880022827 C -0.3090202008827234 -1.6106053719413673 -0.34314990845636584 -1.61930538573543 -0.3733614388623525 -1.6078830266155189 C -0.4035729692683394 -1.5964606674956074 -0.42340987586324075 -1.5673569853260878 -0.4229965806531544 -1.5350609167665028 C -0.42258328544306845 -1.502764848206918 -0.40200811293311123 -1.474178322442762 -0.37151417839369927 -1.4635328157078924 C -0.34102024385428775 -1.452887308973023 -0.30712434595984184 -1.462457851539072 -0.2867011713823233 -1.487479857803804 L -0.04474241283531066 -1.487479857803804 L -0.04474241283531066 -1.4079348223319361 L -0.15251956909118825 -1.4079348223319361 C -0.17297520180172632 -1.432931234546678 -0.20688431340323388 -1.4424582073973289 -0.2373650089632937 -1.431772668975112 C -0.2678457045233542 -1.4210871305528956 -0.2883837089427035 -1.3924727733913003 -0.2887540291043429 -1.3601754608688066 C -0.2891243492659821 -1.3278781483463127 -0.26924784106366983 -1.2988003994137707 -0.23902016696825168 -1.2874187803734525 C -0.20879249287283397 -1.2760371613331343 -0.17467385272720448 -1.2847841297173015 -0.1536504567554582 -1.309304944447096 L -0.04474241283531066 -1.309304944447096 L -0.04474241283531066 -1.2133019316091833 C -0.04476026759653329 -1.120180643124087 -0.11027895800372045 -1.0399197534978368 -0.20151132468141064 -1.0212588328795853 C -0.29274369135910017 -1.0025979122613338 -0.3845152801881069 -1.0506862131261978 -0.42109648472808914 -1.1363214287932188 C -0.4216619285602583 -1.1363214287932986 -0.4222273723923935 -1.1362947149114655 -0.42280172085180645 -1.1362947149114655 C -0.4943319179744121 -1.1363057934741172 -0.5601789237197263 -1.175272818432611 -0.594613004850081 -1.2379694154681882 C -0.6290470859804356 -1.3006660125037652 -0.6266023632208424 -1.3771400638569407 -0.5882341125740984 -1.4375093156780616 Z M -0.3461907600679479 -1.5893332107631784 C -0.3722823897188534 -1.5893329158022462 -0.39453708312746016 -1.5704415594550445 -0.39877459686761063 -1.5446963343593287 C -0.40301211060776043 -1.5189511092636128 -0.3879862086030288 -1.4939235845699437 -0.3632710936614514 -1.485560796078559 C -0.3385559787198733 -1.4771980075871747 -0.3114202686588696 -1.4879594184070055 -0.2991542926302144 -1.5109880738169834 L -0.01689764333788335 -1.5109880738169834 L 0.029110339649273786 -1.556993830647321 L 0.15827641062623266 -1.6861665800947385 L 0.18300233441964053 -1.7108925038881462 L 0.28460413165842047 -1.7108925038881462 C 0.2869027333188152 -1.7071337679588894 0.2896384429334613 -1.703660515216777 0.2927540917743534 -1.7005453269914361 C 0.3144032498549525 -1.6789924010317623 0.34941749063029737 -1.6790443968498843 0.37100254158640444 -1.7006615252032118 C 0.3925875925425113 -1.7222786535565393 0.3925875925425113 -1.7572929329385134 0.37100254158640444 -1.778910061291841 C 0.34941749063029737 -1.8005271896451682 0.3144032498549525 -1.8005791854632904 0.2927540917743534 -1.7790262595036164 C 0.28963830629106013 -1.7759071053279705 0.2869026262642411 -1.7724301539035543 0.28460413165842 -1.7686679518228094 L 0.18300233441964142 -1.7686679518228094 L 0.15827641062623377 -1.7933961017730362 L 0.029110339649274675 -1.9225599465931764 L -0.01689764333788224 -1.9685746080507915 L -0.15036910160361838 -1.9685746080507915 C -0.1627582087054451 -1.9903138487133816 -0.1883412082296705 -2.0008464947038087 -0.2124450332556025 -1.9941315726278794 C -0.2365488582815347 -1.9874166505519504 -0.25300112100676486 -1.9651736843056027 -0.252365666310566 -1.94016007287711 C -0.2517302116143667 -1.915146461448617 -0.23416976357939157 -1.8937675662239541 -0.20975607430533239 -1.8882852003663857 C -0.18534238503127343 -1.8828028345088175 -0.1603271908182753 -1.8946208950393013 -0.14905789523697432 -1.9169611621923102 L -0.03827097496122778 -1.9169611621923102 L -0.0073830490916388936 -1.886064331695443 L 0.12178302188532064 -1.7569027130321226 L 0.13889771551309793 -1.7397857932475265 L 0.12178302188532064 -1.722657742678833 L 0.053778383365377325 -1.6546575564725283 L -0.007245027368834478 -1.7156742887362815 L -0.05326414114008893 -1.7616755932529802 L -0.25468458400528315 -1.7616755932529802 C -0.2642188355264694 -1.7839974196805237 -0.287630827675869 -1.7970580301931427 -0.3116331451487311 -1.7934449092343934 C -0.33563546262159316 -1.7898317882756436 -0.354164978827624 -1.7704576314543436 -0.356705314995871 -1.746318191127714 C -0.3592456511641178 -1.7221787508010842 -0.3451551034346356 -1.6993717915989228 -0.3224307255548484 -1.6908413439490464 C -0.2997063476750619 -1.68231089629917 -0.27408845117641434 -1.690211801459368 -0.26011640664469216 -1.7100599212376795 L -0.07463302044979647 -1.7100599212376795 L -0.043738416109749156 -1.679167543054451 L 0.01727386384036511 -1.6181441323202397 L -0.007383049091639338 -1.59350502864279 L -0.03827097496122822 -1.5626126504595619 L -0.2999846491238616 -1.5626126504595619 C -0.3094883656224805 -1.5791536119808152 -0.32711174157749534 -1.5893497815046802 -0.3461885339111286 -1.5893443415472757 Z M -0.21195350385632739 -1.4125763593004474 C -0.23783728179904284 -1.4125736095076715 -0.25997568716043085 -1.3939710506730851 -0.26443763547637245 -1.3684747571115687 C -0.26889958379231405 -1.3429784635500523 -0.25439447196419396 -1.31796314988036 -0.23004996455232773 -1.309170259171228 C -0.2057054571404613 -1.3003773684620963 -0.1785631186084622 -1.310350213901275 -0.16570286977585313 -1.3328131604602755 L -0.07906084636364219 -1.3328131604602755 L -0.07457514037249058 -1.3304534342316798 L -0.07906084636364219 -1.3328131604602755 L 0.04376290383476156 -1.3328131604602755 L 0.08977311297873802 -1.3788233696042522 L 0.10103078801459486 -1.3900721400128309 L 0.10130683146020414 -1.3897894180967634 L 0.12144687220558592 -1.4099205542148676 L 0.25061294318254546 -1.539086625191827 L 0.28150309520895433 -1.5699790033750556 L 0.39228778932788155 -1.5699790033750556 C 0.40355775360344603 -1.5476446362820915 0.42856911143289556 -1.5358317025534962 0.45297748023471285 -1.5413150938992095 C 0.47738584903653036 -1.5467984852449226 0.49494131928899887 -1.5681741463566559 0.49557556989507856 -1.593182820339585 C 0.49620982050115825 -1.6181914943225146 0.4797604477814277 -1.6404295599055718 0.4556614095852276 -1.6471431585109286 C 0.43156237138902753 -1.6538567571162854 0.40598437127748244 -1.6433268314734915 0.39359676953770584 -1.6215924492335367 L 0.2601253112719697 -1.6215924492335367 L 0.21411732828481256 -1.5755777877759212 L 0.2028618794057755 -1.5643334696809812 L 0.20258583596016577 -1.564607286969771 L 0.18244356905796466 -1.5444850554789444 L 0.053277498081005126 -1.4153167583451658 L 0.02238511989777714 -1.3844243801619374 L -0.16495933339816204 -1.3844243801619374 C -0.1742291330250474 -1.4017611331476927 -0.19229410037776185 -1.4125829984789302 -0.21195350385632628 -1.4125763593004474 Z M 0.4665946778036305 -1.4896748484277618 C 0.48393804585360867 -1.4896699307208536 0.49799444156560235 -1.4756078875938266 0.49799239265536377 -1.4582645189676684 C 0.4979903437451245 -1.4409211503415102 0.48393062590327807 -1.4268624287948624 0.46658725717547256 -1.4268616089083757 C 0.4492438884476666 -1.4268607890218887 0.4351828414510259 -1.4409181811938663 0.43517915276783636 -1.458261549548787 C 0.4351785621886264 -1.4665934411704076 0.43848828405412243 -1.4745842171876729 0.444380029880479 -1.4804755455150314 C 0.45027177570683485 -1.4863668738423896 0.4582627862447928 -1.4896760294397136 0.46659467780363606 -1.4896748484277618 Z M 0.5171284376046885 -1.3658715892288091 C 0.5472726434305282 -1.365871589228809 0.57170935050347 -1.3414348821558673 0.57170935050347 -1.3112906763300274 C 0.57170935050347 -1.2811464705041877 0.5472726434305282 -1.2567097634312463 0.5171284376046885 -1.2567097634312463 C 0.48698423177884864 -1.2567097634312463 0.4625475247059072 -1.2811464705041877 0.4625475247059072 -1.3112906763300274 C 0.46254875408238116 -1.341434372916758 0.48698474101793265 -1.365870359852321 0.5171284376046761 -1.3658715892288091 Z M 0.5171284376046885 -1.9928998236167017 C 0.5472701843380148 -1.9928973645714898 0.57170290449133 -1.9684606575723538 0.571700445512985 -1.938318910839022 C 0.5716979865346397 -1.9081771641056906 0.5472612795897047 -1.8837444438981645 0.517119532856368 -1.8837469028096434 C 0.4869777861230311 -1.8837493617211225 0.46254506586129485 -1.9081860686118555 0.4625475247059072 -1.938327815345198 C 0.46254811504250837 -1.9528025737166321 0.46829906135159627 -1.9666841840500762 0.47853509610771017 -1.9769185488437275 C 0.4887711308638243 -1.9871529136373791 0.5026536793297376 -1.992901594963661 0.5171284376047569 -1.9928998236167015 Z M 0.31580817179636855 -1.1140465036580836 C 0.34595027828345737 -1.1140415858850334 0.37038164165108545 -1.0896032460465748 0.37037795345710545 -1.0594611393839553 C 0.37037426526312545 -1.029319032721336 0.3459369220672155 -1.0048866724672303 0.31579481527922315 -1.0048891310821344 C 0.2856527084912315 -1.004891589697038 0.2612193513913048 -1.029327936209734 0.26122058042712903 -1.059470043072941 C 0.26121998946989056 -1.0739467302053454 0.266971331177996 -1.0878304968341084 0.27720893853291684 -1.0980660166707104 C 0.28744654588783747 -1.1083015365073121 0.30133148508547714 -1.11405004681201 0.3158081717963599 -1.1140465036580836 Z M 0.31580817179636855 -2.2654259414513054 C 0.3459494093794482 -2.265422253271736 0.3703814096950706 -2.2409862663361713 0.37038018006787143 -2.210845028552524 C 0.37037772194968954 -2.1807109564400324 0.3459511482354902 -2.1562823895332563 0.31581707642376666 -2.156277472594659 C 0.28567373974492316 -2.156273783882476 0.26123440257679653 -2.1807061443628584 0.26122948505440724 -2.210849480866163 C 0.26123440221021665 -2.240994257732311 0.28567229918149994 -2.2654291648707647 0.31581707642364254 -2.265430393764944 Z M 0.15113267339268344 -2.159171476459918 C 0.17320899708916393 -2.1591723768544657 0.19311200257911687 -2.145874494367263 0.20156066183860633 -2.1254788030213065 C 0.21000932109809467 -2.1050831116753494 0.205339751340621 -2.0816063481748865 0.1897294331381867 -2.0659960299724527 C 0.17411911493575238 -2.0503857117700184 0.1506423514352897 -2.0457161420125445 0.13024666008933328 -2.0541648012720333 C 0.10985096874337574 -2.062613460531522 0.09655308625617298 -2.0825164660214757 0.09655398665072146 -2.104592789717956 C 0.0965564452118024 -2.134734747643396 0.12099071546747298 -2.159169017898964 0.151132673392798 -2.1591714764599184 Z M 0.3362932668487624 -1.3010280933924558 C 0.3489973644498674 -1.3010298942426548 0.3604515360272862 -1.2933785163343896 0.36531443157970944 -1.2816419774089782 C 0.37017732713213225 -1.2699054384835669 0.36749121863282364 -1.2563952034171446 0.35850870174436156 -1.2474114130450376 C 0.34952618485589904 -1.2384276226729305 0.33601633071747705 -1.2357395989418947 0.32427910252872283 -1.2406008306321745 C 0.31254187433996794 -1.2454620623224546 0.3048888727247032 -1.2569151490983759 0.3048888725970651 -1.2696192468271201 C 0.3048913301060292 -1.2869631172013858 0.31894939699716596 -1.3010231771550977 0.3362932668487648 -1.3010280933924558 Z M 0.2846642378925446 -1.4223669969923 C 0.29736813299753884 -1.422366096453928 0.3088205365060206 -1.4147125239956346 0.3136810667624548 -1.4029752245926221 C 0.3185415970188883 -1.3912379251896094 0.3158530238223767 -1.3777284362406363 0.30686905841070256 -1.3687463809562646 C 0.29788509299902866 -1.3597643256718928 0.2843750326632628 -1.357078625163755 0.2726387670579111 -1.3619416511034657 C 0.260902501452559 -1.3668046770431765 0.25325136438082696 -1.3782587077313224 0.25325316517038954 -1.390962602740603 C 0.2532537555275307 -1.3992925421174052 0.25656352963613815 -1.4072810417842667 0.2624543124727272 -1.413170572151075 C 0.26834509530931694 -1.419060102517884 0.27633429857856484 -1.4223681778949084 0.284664237892563 -1.4223669969923 Z M 0.46305286230391807 -1.8734665102542898 C 0.4757582654436625 -1.8734683110342953 0.4872135303868199 -1.865815908933221 0.49207650955844384 -1.854077991496018 C 0.4969394887300682 -1.8423400740588154 0.4942523736362985 -1.8288285321295128 0.4852682968282387 -1.8198444553214528 C 0.4762842200201787 -1.8108603785133932 0.4627726780908761 -1.8081732634196233 0.4510347606536731 -1.813036242591247 C 0.43929684321647033 -1.8178992217628709 0.43164444111539546 -1.8293544867060285 0.43164624189540146 -1.842059889845773 C 0.43164565140629163 -1.8503896244762972 0.43495436407624255 -1.8583783643584169 0.44084437593376546 -1.864268376215937 C 0.44673438779128904 -1.8701583880734574 0.4547231276734105 -1.873467100743404 0.4630528623039263 -1.8734665102542898 Z M 0.2796776466170223 -2.003340499099828 C 0.301754172887563 -2.0033404989345653 0.3216567767111467 -1.9900415637127236 0.33010447353007 -1.969645254472338 C 0.33855217034899443 -1.9492489452319526 0.3338812349309732 -1.925772197601287 0.3182698184299435 -1.9101626912988672 C 0.3026584019289147 -1.8945531849964474 0.2791810829076733 -1.8898851223824553 0.2587858075356666 -1.8983353149645146 C 0.23839053216365969 -1.906785507546574 0.22509403245472748 -1.9266897385662256 0.22509673371824057 -1.9487662646715045 C 0.22509614303336556 -1.963241589811292 0.23084663905664882 -1.9771241152415433 0.24108286585989136 -1.9873590895494533 C 0.25131909266313346 -1.997594063857363 0.26520232165792135 -2.0033428610805797 0.2796776466170383 -2.003340499099828 Z M 0.6795644222480282 -1.6813714383056868 C 0.7040149409199241 -1.6813689792371351 0.7238340091407669 -1.661545924145249 0.7238315501546451 -1.6370954054733453 C 0.7238290911685241 -1.6126448868014411 0.7040060361434546 -1.5928258185137691 0.6795555174715422 -1.5928282774174594 C 0.6551049987996298 -1.59283073632115 0.6352859304451282 -1.6126537912794032 0.6352883892663881 -1.6371043099513238 C 0.6352895700340118 -1.6488458631939629 0.6399550163355103 -1.6601060439198936 0.6482583832258078 -1.6684077408686322 C 0.6565617501161061 -1.676709437817371 0.6678228690054304 -1.6813726191920642 0.6795644222480428 -1.6813714383056868 Z M 0.15113267339268344 -1.2100228026141633 C 0.17320809670287685 -1.2100228025407112 0.19310974802755054 -1.1967246506392564 0.2015572308016258 -1.1763294465680547 C 0.21000471357570039 -1.1559342424968528 0.2053343767089444 -1.132458626999191 0.18972405848768426 -1.1168495822060192 C 0.17411374026642346 -1.1012405374128473 0.15063774384370898 -1.0965721156877097 0.13024322898075313 -1.1050212622617084 C 0.10984871411779729 -1.1134704088357072 0.096552185824901 -1.1333731449490982 0.09655398665072101 -1.1554485681858402 C 0.09655644545383457 -1.18558980578794 0.12099143569037007 -1.2100228027144744 0.1511326733927214 -1.2100228026141633 Z M 0.455708770956619 -1.1921489895109607 C 0.47778329373084216 -1.1921471883913368 0.4976830482623309 -1.1788479553016964 0.5061285225203276 -1.158452894048755 C 0.5145739967783243 -1.1380578327958133 0.5099019352384933 -1.1145835559772588 0.4942909804161828 -1.0989764214391862 C 0.4786800255938728 -1.0833692869011131 0.4552046060001609 -1.0787029707860927 0.434811612371929 -1.0871534364438302 C 0.4144186187436971 -1.0956039021015678 0.4011242564796855 -1.1155069109992026 0.40112785805783724 -1.137581433553096 C 0.40112962918997064 -1.1520554204771445 0.40688109675501094 -1.1659358869878764 0.41711700351594194 -1.1761692888364557 C 0.4273529102768725 -1.186402690685035 0.44123478403269845 -1.1921507608598476 0.4557087709566694 -1.1921489895109607 Z M 0.6459093834518868 -1.5160592590516448 C 0.6679846041901709 -1.5160592590332815 0.6878861147246478 -1.502761348040815 0.6963337279874722 -1.4823664172783506 C 0.7047813412502961 -1.4619714865158862 0.7001114124452075 -1.4384960456622438 0.6845015558206149 -1.4228868257328677 C 0.6688916991960223 -1.4072776058034921 0.6454160678808525 -1.4026086345386755 0.6250214817038393 -1.411057079680376 C 0.6046268955268252 -1.4195055248220765 0.5913297963052773 -1.4394075777465811 0.591330696709925 -1.461482798466502 C 0.5913356133815793 -1.491623377881019 0.6157688038618989 -1.5160555717797626 0.6459093834518876 -1.5160592590516446 Z M 0.6459093834518868 -1.865120648338247 C 0.6679837037588934 -1.8651197478601471 0.6878838600990593 -1.851821567491123 0.6963302968788829 -1.831427124043174 C 0.704776733658707 -1.8110326805952253 0.7001060377758743 -1.7875583877739232 0.6844961811701129 -1.7719504412538094 C 0.6688863245643519 -1.7563424947336959 0.645411460358468 -1.7516746714716762 0.6250180506668688 -1.760123603888126 C 0.6046246409752696 -1.7685725363045763 0.591328895918998 -1.7884743198148239 0.5913306967099254 -1.8105486400667432 C 0.5913331555130386 -1.8406898776688432 0.6157681457495738 -1.8651228745953774 0.6459093834519254 -1.8651228744950665 Z" fill="#173054" transform="matrix(1,0,0,1,0,0)" fill-rule="evenodd"></path></g></g><defs><clipPath id="SvgjsClipPath1040"><path d=" M -1.447663101204781 -3.082826202409562 h 2.895326202409562 v 2.895326202409562 h -2.895326202409562 Z"></path></clipPath></defs></svg>